<?xml version="1.0" encoding="UTF-8" standalone="no"?>
<!DOCTYPE svg PUBLIC "-//W3C//DTD SVG 1.1//EN"
 "http://www.w3.org/Graphics/SVG/1.1/DTD/svg11.dtd">
<!-- Generated by graphviz version 2.40.1 (20161225.0304)
 -->
<!-- Title: snakemake_dag Pages: 1 -->
<svg width="3868pt" height="337pt"
 viewBox="0.00 0.00 3868.00 337.00" xmlns="http://www.w3.org/2000/svg" xmlns:xlink="http://www.w3.org/1999/xlink">
<g id="graph0" class="graph" transform="scale(1 1) rotate(0) translate(4 333)">
<title>snakemake_dag</title>
<polygon fill="#ffffff" stroke="transparent" points="-4,4 -4,-333 3864,-333 3864,4 -4,4"/>
<!-- 0 -->
<g id="node1" class="node">
<title>0</title>
<path fill="none" stroke="#d85656" stroke-width="2" d="M1937.5,-36C1937.5,-36 1907.5,-36 1907.5,-36 1901.5,-36 1895.5,-30 1895.5,-24 1895.5,-24 1895.5,-12 1895.5,-12 1895.5,-6 1901.5,0 1907.5,0 1907.5,0 1937.5,0 1937.5,0 1943.5,0 1949.5,-6 1949.5,-12 1949.5,-12 1949.5,-24 1949.5,-24 1949.5,-30 1943.5,-36 1937.5,-36"/>
<text text-anchor="middle" x="1922.5" y="-15.5" font-family="sans" font-size="10.00" fill="#000000">all</text>
</g>
<!-- 1 -->
<g id="node2" class="node">
<title>1</title>
<path fill="none" stroke="#70d856" stroke-width="2" stroke-dasharray="5,2" d="M936,-185C936,-185 845,-185 845,-185 839,-185 833,-179 833,-173 833,-173 833,-156 833,-156 833,-150 839,-144 845,-144 845,-144 936,-144 936,-144 942,-144 948,-150 948,-156 948,-156 948,-173 948,-173 948,-179 942,-185 936,-185"/>
<text text-anchor="middle" x="890.5" y="-173" font-family="sans" font-size="10.00" fill="#000000">sketch_pN_sigs</text>
<text text-anchor="middle" x="890.5" y="-162" font-family="sans" font-size="10.00" fill="#000000">catlas: SRR5962882</text>
<text text-anchor="middle" x="890.5" y="-151" font-family="sans" font-size="10.00" fill="#000000">phage: uvig_409809</text>
</g>
<!-- 1&#45;&gt;0 -->
<g id="edge1" class="edge">
<title>1&#45;&gt;0</title>
<path fill="none" stroke="#c0c0c0" stroke-width="2" d="M948.2522,-145.7055C951.0265,-145.0728 953.7858,-144.4985 956.5,-144 1083.2946,-120.714 1414.5248,-152.5435 1535.5,-108 1560.5243,-98.786 1558.946,-82.4025 1583.5,-72 1637.5474,-49.1024 1809.1365,-29.4702 1885.3764,-21.6355"/>
<polygon fill="#c0c0c0" stroke="#c0c0c0" stroke-width="2" points="1885.8841,-25.1021 1895.4792,-20.6092 1885.1766,-18.1379 1885.8841,-25.1021"/>
</g>
<!-- 47 -->
<g id="node48" class="node">
<title>47</title>
<path fill="none" stroke="#56d873" stroke-width="2" d="M1960.5,-108C1960.5,-108 1884.5,-108 1884.5,-108 1878.5,-108 1872.5,-102 1872.5,-96 1872.5,-96 1872.5,-84 1872.5,-84 1872.5,-78 1878.5,-72 1884.5,-72 1884.5,-72 1960.5,-72 1960.5,-72 1966.5,-72 1972.5,-78 1972.5,-84 1972.5,-84 1972.5,-96 1972.5,-96 1972.5,-102 1966.5,-108 1960.5,-108"/>
<text text-anchor="middle" x="1922.5" y="-87.5" font-family="sans" font-size="10.00" fill="#000000">write_duos_table</text>
</g>
<!-- 1&#45;&gt;47 -->
<g id="edge92" class="edge">
<title>1&#45;&gt;47</title>
<path fill="none" stroke="#c0c0c0" stroke-width="2" d="M948.2484,-145.6844C951.0237,-145.0574 953.7842,-144.49 956.5,-144 967.6948,-141.9802 1652.2143,-104.6813 1862.0317,-93.2817"/>
<polygon fill="#c0c0c0" stroke="#c0c0c0" stroke-width="2" points="1862.4512,-96.7642 1872.2466,-92.7268 1862.0714,-89.7745 1862.4512,-96.7642"/>
</g>
<!-- 2 -->
<g id="node3" class="node">
<title>2</title>
<path fill="none" stroke="#5692d8" stroke-width="2" stroke-dasharray="5,2" d="M1968,-257C1968,-257 1877,-257 1877,-257 1871,-257 1865,-251 1865,-245 1865,-245 1865,-233 1865,-233 1865,-227 1871,-221 1877,-221 1877,-221 1968,-221 1968,-221 1974,-221 1980,-227 1980,-233 1980,-233 1980,-245 1980,-245 1980,-251 1974,-257 1968,-257"/>
<text text-anchor="middle" x="1922.5" y="-236.5" font-family="sans" font-size="10.00" fill="#000000">query_metagenome</text>
</g>
<!-- 2&#45;&gt;1 -->
<g id="edge32" class="edge">
<title>2&#45;&gt;1</title>
<path fill="none" stroke="#c0c0c0" stroke-width="2" d="M1864.5908,-234.3146C1815.3753,-230.4276 1742.8333,-224.9219 1679.5,-221 1361.6764,-201.319 1275.0618,-240.3453 958.1685,-185.0843"/>
<polygon fill="#c0c0c0" stroke="#c0c0c0" stroke-width="2" points="958.7003,-181.6241 948.2447,-183.3362 957.4859,-188.518 958.7003,-181.6241"/>
</g>
<!-- 18 -->
<g id="node19" class="node">
<title>18</title>
<path fill="none" stroke="#70d856" stroke-width="2" stroke-dasharray="5,2" d="M1069,-185C1069,-185 978,-185 978,-185 972,-185 966,-179 966,-173 966,-173 966,-156 966,-156 966,-150 972,-144 978,-144 978,-144 1069,-144 1069,-144 1075,-144 1081,-150 1081,-156 1081,-156 1081,-173 1081,-173 1081,-179 1075,-185 1069,-185"/>
<text text-anchor="middle" x="1023.5" y="-173" font-family="sans" font-size="10.00" fill="#000000">sketch_pN_sigs</text>
<text text-anchor="middle" x="1023.5" y="-162" font-family="sans" font-size="10.00" fill="#000000">catlas: SRR5962882</text>
<text text-anchor="middle" x="1023.5" y="-151" font-family="sans" font-size="10.00" fill="#000000">phage: uvig_430148</text>
</g>
<!-- 2&#45;&gt;18 -->
<g id="edge48" class="edge">
<title>2&#45;&gt;18</title>
<path fill="none" stroke="#c0c0c0" stroke-width="2" d="M1864.579,-234.4969C1815.3563,-230.721 1742.8104,-225.2762 1679.5,-221 1420.7149,-203.521 1349.7109,-231.5752 1091.3131,-185.1274"/>
<polygon fill="#c0c0c0" stroke="#c0c0c0" stroke-width="2" points="1091.7163,-181.6434 1081.2515,-183.2984 1090.4643,-188.5305 1091.7163,-181.6434"/>
</g>
<!-- 19 -->
<g id="node20" class="node">
<title>19</title>
<path fill="none" stroke="#70d856" stroke-width="2" stroke-dasharray="5,2" d="M1202,-185C1202,-185 1111,-185 1111,-185 1105,-185 1099,-179 1099,-173 1099,-173 1099,-156 1099,-156 1099,-150 1105,-144 1111,-144 1111,-144 1202,-144 1202,-144 1208,-144 1214,-150 1214,-156 1214,-156 1214,-173 1214,-173 1214,-179 1208,-185 1202,-185"/>
<text text-anchor="middle" x="1156.5" y="-173" font-family="sans" font-size="10.00" fill="#000000">sketch_pN_sigs</text>
<text text-anchor="middle" x="1156.5" y="-162" font-family="sans" font-size="10.00" fill="#000000">catlas: SRR5962882</text>
<text text-anchor="middle" x="1156.5" y="-151" font-family="sans" font-size="10.00" fill="#000000">phage: uvig_477575</text>
</g>
<!-- 2&#45;&gt;19 -->
<g id="edge49" class="edge">
<title>2&#45;&gt;19</title>
<path fill="none" stroke="#c0c0c0" stroke-width="2" d="M1864.929,-234.731C1711.2173,-223.3121 1298.2863,-192.4929 1224.6171,-184.5718"/>
<polygon fill="#c0c0c0" stroke="#c0c0c0" stroke-width="2" points="1224.6255,-181.0443 1214.2616,-183.2443 1223.7354,-187.9875 1224.6255,-181.0443"/>
</g>
<!-- 20 -->
<g id="node21" class="node">
<title>20</title>
<path fill="none" stroke="#70d856" stroke-width="2" stroke-dasharray="5,2" d="M1335,-185C1335,-185 1244,-185 1244,-185 1238,-185 1232,-179 1232,-173 1232,-173 1232,-156 1232,-156 1232,-150 1238,-144 1244,-144 1244,-144 1335,-144 1335,-144 1341,-144 1347,-150 1347,-156 1347,-156 1347,-173 1347,-173 1347,-179 1341,-185 1335,-185"/>
<text text-anchor="middle" x="1289.5" y="-173" font-family="sans" font-size="10.00" fill="#000000">sketch_pN_sigs</text>
<text text-anchor="middle" x="1289.5" y="-162" font-family="sans" font-size="10.00" fill="#000000">catlas: SRR5962882</text>
<text text-anchor="middle" x="1289.5" y="-151" font-family="sans" font-size="10.00" fill="#000000">phage: uvig_560376</text>
</g>
<!-- 2&#45;&gt;20 -->
<g id="edge50" class="edge">
<title>2&#45;&gt;20</title>
<path fill="none" stroke="#c0c0c0" stroke-width="2" d="M1864.6764,-234.9725C1744.4413,-226.3623 1470.0002,-205.4248 1357.1427,-184.8431"/>
<polygon fill="#c0c0c0" stroke="#c0c0c0" stroke-width="2" points="1357.5341,-181.3546 1347.055,-182.9169 1356.2211,-188.2304 1357.5341,-181.3546"/>
</g>
<!-- 21 -->
<g id="node22" class="node">
<title>21</title>
<path fill="none" stroke="#56c9d8" stroke-width="2" stroke-dasharray="5,2" d="M1477.5,-185C1477.5,-185 1377.5,-185 1377.5,-185 1371.5,-185 1365.5,-179 1365.5,-173 1365.5,-173 1365.5,-156 1365.5,-156 1365.5,-150 1371.5,-144 1377.5,-144 1377.5,-144 1477.5,-144 1477.5,-144 1483.5,-144 1489.5,-150 1489.5,-156 1489.5,-156 1489.5,-173 1489.5,-173 1489.5,-179 1483.5,-185 1477.5,-185"/>
<text text-anchor="middle" x="1427.5" y="-173" font-family="sans" font-size="10.00" fill="#000000">sketch_hN_sigs</text>
<text text-anchor="middle" x="1427.5" y="-162" font-family="sans" font-size="10.00" fill="#000000">catlas: SRR5962882</text>
<text text-anchor="middle" x="1427.5" y="-151" font-family="sans" font-size="10.00" fill="#000000">host: GCA_003436725</text>
</g>
<!-- 2&#45;&gt;21 -->
<g id="edge51" class="edge">
<title>2&#45;&gt;21</title>
<path fill="none" stroke="#c0c0c0" stroke-width="2" d="M1864.7707,-234.4936C1784.7462,-227.6198 1635.543,-212.5412 1499.8617,-185.1297"/>
<polygon fill="#c0c0c0" stroke="#c0c0c0" stroke-width="2" points="1500.2011,-181.6266 1489.7022,-183.0485 1498.7963,-188.4842 1500.2011,-181.6266"/>
</g>
<!-- 22 -->
<g id="node23" class="node">
<title>22</title>
<path fill="none" stroke="#56c9d8" stroke-width="2" stroke-dasharray="5,2" d="M1619.5,-185C1619.5,-185 1519.5,-185 1519.5,-185 1513.5,-185 1507.5,-179 1507.5,-173 1507.5,-173 1507.5,-156 1507.5,-156 1507.5,-150 1513.5,-144 1519.5,-144 1519.5,-144 1619.5,-144 1619.5,-144 1625.5,-144 1631.5,-150 1631.5,-156 1631.5,-156 1631.5,-173 1631.5,-173 1631.5,-179 1625.5,-185 1619.5,-185"/>
<text text-anchor="middle" x="1569.5" y="-173" font-family="sans" font-size="10.00" fill="#000000">sketch_hN_sigs</text>
<text text-anchor="middle" x="1569.5" y="-162" font-family="sans" font-size="10.00" fill="#000000">catlas: SRR5962882</text>
<text text-anchor="middle" x="1569.5" y="-151" font-family="sans" font-size="10.00" fill="#000000">host: GCA_003435635</text>
</g>
<!-- 2&#45;&gt;22 -->
<g id="edge52" class="edge">
<title>2&#45;&gt;22</title>
<path fill="none" stroke="#c0c0c0" stroke-width="2" d="M1864.919,-229.5702C1809.873,-220.1956 1724.3936,-204.7022 1641.5749,-185.1644"/>
<polygon fill="#c0c0c0" stroke="#c0c0c0" stroke-width="2" points="1642.2909,-181.7371 1631.7521,-182.8248 1640.669,-188.5466 1642.2909,-181.7371"/>
</g>
<!-- 23 -->
<g id="node24" class="node">
<title>23</title>
<path fill="none" stroke="#56c9d8" stroke-width="2" stroke-dasharray="5,2" d="M1761.5,-185C1761.5,-185 1661.5,-185 1661.5,-185 1655.5,-185 1649.5,-179 1649.5,-173 1649.5,-173 1649.5,-156 1649.5,-156 1649.5,-150 1655.5,-144 1661.5,-144 1661.5,-144 1761.5,-144 1761.5,-144 1767.5,-144 1773.5,-150 1773.5,-156 1773.5,-156 1773.5,-173 1773.5,-173 1773.5,-179 1767.5,-185 1761.5,-185"/>
<text text-anchor="middle" x="1711.5" y="-173" font-family="sans" font-size="10.00" fill="#000000">sketch_hN_sigs</text>
<text text-anchor="middle" x="1711.5" y="-162" font-family="sans" font-size="10.00" fill="#000000">catlas: SRR5962882</text>
<text text-anchor="middle" x="1711.5" y="-151" font-family="sans" font-size="10.00" fill="#000000">host: GCA_003470775</text>
</g>
<!-- 2&#45;&gt;23 -->
<g id="edge53" class="edge">
<title>2&#45;&gt;23</title>
<path fill="none" stroke="#c0c0c0" stroke-width="2" d="M1871.4228,-220.9656C1843.7992,-211.2123 1809.3206,-199.0386 1779.4574,-188.4944"/>
<polygon fill="#c0c0c0" stroke="#c0c0c0" stroke-width="2" points="1780.533,-185.1625 1769.9382,-185.1334 1778.2024,-191.7631 1780.533,-185.1625"/>
</g>
<!-- 24 -->
<g id="node25" class="node">
<title>24</title>
<path fill="none" stroke="#56c9d8" stroke-width="2" stroke-dasharray="5,2" d="M1901.5,-185C1901.5,-185 1803.5,-185 1803.5,-185 1797.5,-185 1791.5,-179 1791.5,-173 1791.5,-173 1791.5,-156 1791.5,-156 1791.5,-150 1797.5,-144 1803.5,-144 1803.5,-144 1901.5,-144 1901.5,-144 1907.5,-144 1913.5,-150 1913.5,-156 1913.5,-156 1913.5,-173 1913.5,-173 1913.5,-179 1907.5,-185 1901.5,-185"/>
<text text-anchor="middle" x="1852.5" y="-173" font-family="sans" font-size="10.00" fill="#000000">sketch_hN_sigs</text>
<text text-anchor="middle" x="1852.5" y="-162" font-family="sans" font-size="10.00" fill="#000000">catlas: SRR5962882</text>
<text text-anchor="middle" x="1852.5" y="-151" font-family="sans" font-size="10.00" fill="#000000">host: GCF_000155205</text>
</g>
<!-- 2&#45;&gt;24 -->
<g id="edge54" class="edge">
<title>2&#45;&gt;24</title>
<path fill="none" stroke="#c0c0c0" stroke-width="2" d="M1905.555,-220.9656C1897.5731,-212.4707 1887.8662,-202.1397 1878.9482,-192.6485"/>
<polygon fill="#c0c0c0" stroke="#c0c0c0" stroke-width="2" points="1881.4117,-190.159 1872.0134,-185.2679 1876.3103,-194.9523 1881.4117,-190.159"/>
</g>
<!-- 25 -->
<g id="node26" class="node">
<title>25</title>
<path fill="none" stroke="#56c9d8" stroke-width="2" stroke-dasharray="5,2" d="M2043.5,-185C2043.5,-185 1943.5,-185 1943.5,-185 1937.5,-185 1931.5,-179 1931.5,-173 1931.5,-173 1931.5,-156 1931.5,-156 1931.5,-150 1937.5,-144 1943.5,-144 1943.5,-144 2043.5,-144 2043.5,-144 2049.5,-144 2055.5,-150 2055.5,-156 2055.5,-156 2055.5,-173 2055.5,-173 2055.5,-179 2049.5,-185 2043.5,-185"/>
<text text-anchor="middle" x="1993.5" y="-173" font-family="sans" font-size="10.00" fill="#000000">sketch_hN_sigs</text>
<text text-anchor="middle" x="1993.5" y="-162" font-family="sans" font-size="10.00" fill="#000000">catlas: SRR5962882</text>
<text text-anchor="middle" x="1993.5" y="-151" font-family="sans" font-size="10.00" fill="#000000">host: GCA_003470035</text>
</g>
<!-- 2&#45;&gt;25 -->
<g id="edge55" class="edge">
<title>2&#45;&gt;25</title>
<path fill="none" stroke="#c0c0c0" stroke-width="2" d="M1939.6871,-220.9656C1947.783,-212.4707 1957.6286,-202.1397 1966.6739,-192.6485"/>
<polygon fill="#c0c0c0" stroke="#c0c0c0" stroke-width="2" points="1969.3425,-194.9216 1973.7078,-185.2679 1964.2751,-190.0923 1969.3425,-194.9216"/>
</g>
<!-- 26 -->
<g id="node27" class="node">
<title>26</title>
<path fill="none" stroke="#56c9d8" stroke-width="2" stroke-dasharray="5,2" d="M2185.5,-185C2185.5,-185 2085.5,-185 2085.5,-185 2079.5,-185 2073.5,-179 2073.5,-173 2073.5,-173 2073.5,-156 2073.5,-156 2073.5,-150 2079.5,-144 2085.5,-144 2085.5,-144 2185.5,-144 2185.5,-144 2191.5,-144 2197.5,-150 2197.5,-156 2197.5,-156 2197.5,-173 2197.5,-173 2197.5,-179 2191.5,-185 2185.5,-185"/>
<text text-anchor="middle" x="2135.5" y="-173" font-family="sans" font-size="10.00" fill="#000000">sketch_hN_sigs</text>
<text text-anchor="middle" x="2135.5" y="-162" font-family="sans" font-size="10.00" fill="#000000">catlas: SRR5962882</text>
<text text-anchor="middle" x="2135.5" y="-151" font-family="sans" font-size="10.00" fill="#000000">host: GCA_003472405</text>
</g>
<!-- 2&#45;&gt;26 -->
<g id="edge56" class="edge">
<title>2&#45;&gt;26</title>
<path fill="none" stroke="#c0c0c0" stroke-width="2" d="M1974.0614,-220.9656C2001.9468,-211.2123 2036.7521,-199.0386 2066.8985,-188.4944"/>
<polygon fill="#c0c0c0" stroke="#c0c0c0" stroke-width="2" points="2068.2242,-191.7387 2076.5079,-185.1334 2065.9131,-185.1312 2068.2242,-191.7387"/>
</g>
<!-- 27 -->
<g id="node28" class="node">
<title>27</title>
<path fill="none" stroke="#56c9d8" stroke-width="2" stroke-dasharray="5,2" d="M2327.5,-185C2327.5,-185 2227.5,-185 2227.5,-185 2221.5,-185 2215.5,-179 2215.5,-173 2215.5,-173 2215.5,-156 2215.5,-156 2215.5,-150 2221.5,-144 2227.5,-144 2227.5,-144 2327.5,-144 2327.5,-144 2333.5,-144 2339.5,-150 2339.5,-156 2339.5,-156 2339.5,-173 2339.5,-173 2339.5,-179 2333.5,-185 2327.5,-185"/>
<text text-anchor="middle" x="2277.5" y="-173" font-family="sans" font-size="10.00" fill="#000000">sketch_hN_sigs</text>
<text text-anchor="middle" x="2277.5" y="-162" font-family="sans" font-size="10.00" fill="#000000">catlas: SRR5962882</text>
<text text-anchor="middle" x="2277.5" y="-151" font-family="sans" font-size="10.00" fill="#000000">host: GCA_003471505</text>
</g>
<!-- 2&#45;&gt;27 -->
<g id="edge57" class="edge">
<title>2&#45;&gt;27</title>
<path fill="none" stroke="#c0c0c0" stroke-width="2" d="M1980.2209,-229.6487C2035.6462,-220.3034 2121.8842,-204.8075 2205.3499,-185.1801"/>
<polygon fill="#c0c0c0" stroke="#c0c0c0" stroke-width="2" points="2206.3282,-188.5452 2215.249,-182.8294 2204.7109,-181.7346 2206.3282,-188.5452"/>
</g>
<!-- 28 -->
<g id="node29" class="node">
<title>28</title>
<path fill="none" stroke="#56c9d8" stroke-width="2" stroke-dasharray="5,2" d="M2469.5,-185C2469.5,-185 2369.5,-185 2369.5,-185 2363.5,-185 2357.5,-179 2357.5,-173 2357.5,-173 2357.5,-156 2357.5,-156 2357.5,-150 2363.5,-144 2369.5,-144 2369.5,-144 2469.5,-144 2469.5,-144 2475.5,-144 2481.5,-150 2481.5,-156 2481.5,-156 2481.5,-173 2481.5,-173 2481.5,-179 2475.5,-185 2469.5,-185"/>
<text text-anchor="middle" x="2419.5" y="-173" font-family="sans" font-size="10.00" fill="#000000">sketch_hN_sigs</text>
<text text-anchor="middle" x="2419.5" y="-162" font-family="sans" font-size="10.00" fill="#000000">catlas: SRR5962882</text>
<text text-anchor="middle" x="2419.5" y="-151" font-family="sans" font-size="10.00" fill="#000000">host: GCA_003437995</text>
</g>
<!-- 2&#45;&gt;28 -->
<g id="edge58" class="edge">
<title>2&#45;&gt;28</title>
<path fill="none" stroke="#c0c0c0" stroke-width="2" d="M1980.1557,-234.5469C2060.5511,-227.708 2210.9183,-212.6334 2347.4901,-185.0577"/>
<polygon fill="#c0c0c0" stroke="#c0c0c0" stroke-width="2" points="2348.203,-188.4845 2357.2983,-183.0506 2346.7996,-181.6266 2348.203,-188.4845"/>
</g>
<!-- 29 -->
<g id="node30" class="node">
<title>29</title>
<path fill="none" stroke="#56c9d8" stroke-width="2" stroke-dasharray="5,2" d="M2611.5,-185C2611.5,-185 2511.5,-185 2511.5,-185 2505.5,-185 2499.5,-179 2499.5,-173 2499.5,-173 2499.5,-156 2499.5,-156 2499.5,-150 2505.5,-144 2511.5,-144 2511.5,-144 2611.5,-144 2611.5,-144 2617.5,-144 2623.5,-150 2623.5,-156 2623.5,-156 2623.5,-173 2623.5,-173 2623.5,-179 2617.5,-185 2611.5,-185"/>
<text text-anchor="middle" x="2561.5" y="-173" font-family="sans" font-size="10.00" fill="#000000">sketch_hN_sigs</text>
<text text-anchor="middle" x="2561.5" y="-162" font-family="sans" font-size="10.00" fill="#000000">catlas: SRR5962882</text>
<text text-anchor="middle" x="2561.5" y="-151" font-family="sans" font-size="10.00" fill="#000000">host: GCA_003467905</text>
</g>
<!-- 2&#45;&gt;29 -->
<g id="edge59" class="edge">
<title>2&#45;&gt;29</title>
<path fill="none" stroke="#c0c0c0" stroke-width="2" d="M1980.098,-234.1381C2108.2079,-223.2401 2411.0279,-196.9883 2489.4291,-184.8484"/>
<polygon fill="#c0c0c0" stroke="#c0c0c0" stroke-width="2" points="2490.0505,-188.2931 2499.3206,-183.1632 2488.8748,-181.3925 2490.0505,-188.2931"/>
</g>
<!-- 30 -->
<g id="node31" class="node">
<title>30</title>
<path fill="none" stroke="#56c9d8" stroke-width="2" stroke-dasharray="5,2" d="M2753.5,-185C2753.5,-185 2653.5,-185 2653.5,-185 2647.5,-185 2641.5,-179 2641.5,-173 2641.5,-173 2641.5,-156 2641.5,-156 2641.5,-150 2647.5,-144 2653.5,-144 2653.5,-144 2753.5,-144 2753.5,-144 2759.5,-144 2765.5,-150 2765.5,-156 2765.5,-156 2765.5,-173 2765.5,-173 2765.5,-179 2759.5,-185 2753.5,-185"/>
<text text-anchor="middle" x="2703.5" y="-173" font-family="sans" font-size="10.00" fill="#000000">sketch_hN_sigs</text>
<text text-anchor="middle" x="2703.5" y="-162" font-family="sans" font-size="10.00" fill="#000000">catlas: SRR5962882</text>
<text text-anchor="middle" x="2703.5" y="-151" font-family="sans" font-size="10.00" fill="#000000">host: GCA_003473205</text>
</g>
<!-- 2&#45;&gt;30 -->
<g id="edge60" class="edge">
<title>2&#45;&gt;30</title>
<path fill="none" stroke="#c0c0c0" stroke-width="2" d="M1980.3766,-234.3907C2026.6722,-230.7181 2093.2476,-225.4693 2151.5,-221 2362.0121,-204.8489 2419.7683,-222.3887 2631.4629,-184.9988"/>
<polygon fill="#c0c0c0" stroke="#c0c0c0" stroke-width="2" points="2632.1053,-188.4396 2641.334,-183.2356 2630.8743,-181.5486 2632.1053,-188.4396"/>
</g>
<!-- 31 -->
<g id="node32" class="node">
<title>31</title>
<path fill="none" stroke="#56c9d8" stroke-width="2" stroke-dasharray="5,2" d="M2895.5,-185C2895.5,-185 2795.5,-185 2795.5,-185 2789.5,-185 2783.5,-179 2783.5,-173 2783.5,-173 2783.5,-156 2783.5,-156 2783.5,-150 2789.5,-144 2795.5,-144 2795.5,-144 2895.5,-144 2895.5,-144 2901.5,-144 2907.5,-150 2907.5,-156 2907.5,-156 2907.5,-173 2907.5,-173 2907.5,-179 2901.5,-185 2895.5,-185"/>
<text text-anchor="middle" x="2845.5" y="-173" font-family="sans" font-size="10.00" fill="#000000">sketch_hN_sigs</text>
<text text-anchor="middle" x="2845.5" y="-162" font-family="sans" font-size="10.00" fill="#000000">catlas: SRR5962882</text>
<text text-anchor="middle" x="2845.5" y="-151" font-family="sans" font-size="10.00" fill="#000000">host: GCA_003471045</text>
</g>
<!-- 2&#45;&gt;31 -->
<g id="edge61" class="edge">
<title>2&#45;&gt;31</title>
<path fill="none" stroke="#c0c0c0" stroke-width="2" d="M1980.3569,-234.1191C2026.6415,-230.2948 2093.2118,-224.9745 2151.5,-221 2424.8305,-202.3626 2499.309,-231.0439 2773.1022,-185.037"/>
<polygon fill="#c0c0c0" stroke="#c0c0c0" stroke-width="2" points="2774.0722,-188.4225 2783.3447,-183.2969 2772.8998,-181.5213 2774.0722,-188.4225"/>
</g>
<!-- 3 -->
<g id="node4" class="node">
<title>3</title>
<path fill="none" stroke="#d8cb56" stroke-width="2" stroke-dasharray="5,2" d="M592,-329C592,-329 501,-329 501,-329 495,-329 489,-323 489,-317 489,-317 489,-305 489,-305 489,-299 495,-293 501,-293 501,-293 592,-293 592,-293 598,-293 604,-299 604,-305 604,-305 604,-317 604,-317 604,-323 598,-329 592,-329"/>
<text text-anchor="middle" x="546.5" y="-314" font-family="sans" font-size="10.00" fill="#000000">get_pRef_genomes</text>
<text text-anchor="middle" x="546.5" y="-303" font-family="sans" font-size="10.00" fill="#000000">phage: uvig_409809</text>
</g>
<!-- 3&#45;&gt;2 -->
<g id="edge33" class="edge">
<title>3&#45;&gt;2</title>
<path fill="none" stroke="#c0c0c0" stroke-width="2" d="M604.1029,-306.9728C659.9262,-303.1339 746.9941,-297.3152 822.5,-293 1213.2407,-270.669 1682.3891,-249.525 1854.7443,-241.9467"/>
<polygon fill="#c0c0c0" stroke="#c0c0c0" stroke-width="2" points="1855.0956,-245.4348 1864.9324,-241.4994 1854.7885,-238.4415 1855.0956,-245.4348"/>
</g>
<!-- 32 -->
<g id="node33" class="node">
<title>32</title>
<path fill="none" stroke="#56d8a9" stroke-width="2" stroke-dasharray="5,2" d="M89,-182.5C89,-182.5 12,-182.5 12,-182.5 6,-182.5 0,-176.5 0,-170.5 0,-170.5 0,-158.5 0,-158.5 0,-152.5 6,-146.5 12,-146.5 12,-146.5 89,-146.5 89,-146.5 95,-146.5 101,-152.5 101,-158.5 101,-158.5 101,-170.5 101,-170.5 101,-176.5 95,-182.5 89,-182.5"/>
<text text-anchor="middle" x="50.5" y="-162" font-family="sans" font-size="10.00" fill="#000000">sketch_pRef_sigs</text>
</g>
<!-- 3&#45;&gt;32 -->
<g id="edge62" class="edge">
<title>3&#45;&gt;32</title>
<path fill="none" stroke="#c0c0c0" stroke-width="2" d="M488.9398,-295.4644C406.9626,-273.1043 251.7513,-229.9033 110.9711,-185.4105"/>
<polygon fill="#c0c0c0" stroke="#c0c0c0" stroke-width="2" points="111.8811,-182.0273 101.2909,-182.3417 109.7657,-188.7001 111.8811,-182.0273"/>
</g>
<!-- 4 -->
<g id="node5" class="node">
<title>4</title>
<path fill="none" stroke="#d8cb56" stroke-width="2" stroke-dasharray="5,2" d="M935,-329C935,-329 844,-329 844,-329 838,-329 832,-323 832,-317 832,-317 832,-305 832,-305 832,-299 838,-293 844,-293 844,-293 935,-293 935,-293 941,-293 947,-299 947,-305 947,-305 947,-317 947,-317 947,-323 941,-329 935,-329"/>
<text text-anchor="middle" x="889.5" y="-314" font-family="sans" font-size="10.00" fill="#000000">get_pRef_genomes</text>
<text text-anchor="middle" x="889.5" y="-303" font-family="sans" font-size="10.00" fill="#000000">phage: uvig_430148</text>
</g>
<!-- 4&#45;&gt;2 -->
<g id="edge34" class="edge">
<title>4&#45;&gt;2</title>
<path fill="none" stroke="#c0c0c0" stroke-width="2" d="M947.2235,-304.3095C980.3416,-300.625 1022.7214,-296.1702 1060.5,-293 1355.9858,-268.2039 1709.3323,-249.4938 1854.8253,-242.2634"/>
<polygon fill="#c0c0c0" stroke="#c0c0c0" stroke-width="2" points="1855.1233,-245.753 1864.938,-241.7627 1854.7771,-238.7616 1855.1233,-245.753"/>
</g>
<!-- 33 -->
<g id="node34" class="node">
<title>33</title>
<path fill="none" stroke="#56d8a9" stroke-width="2" stroke-dasharray="5,2" d="M208,-182.5C208,-182.5 131,-182.5 131,-182.5 125,-182.5 119,-176.5 119,-170.5 119,-170.5 119,-158.5 119,-158.5 119,-152.5 125,-146.5 131,-146.5 131,-146.5 208,-146.5 208,-146.5 214,-146.5 220,-152.5 220,-158.5 220,-158.5 220,-170.5 220,-170.5 220,-176.5 214,-182.5 208,-182.5"/>
<text text-anchor="middle" x="169.5" y="-162" font-family="sans" font-size="10.00" fill="#000000">sketch_pRef_sigs</text>
</g>
<!-- 4&#45;&gt;33 -->
<g id="edge63" class="edge">
<title>4&#45;&gt;33</title>
<path fill="none" stroke="#c0c0c0" stroke-width="2" d="M831.8352,-302.9099C717.8477,-286.2921 455.8426,-244.9853 229.6059,-185.138"/>
<polygon fill="#c0c0c0" stroke="#c0c0c0" stroke-width="2" points="230.4438,-181.7393 219.8799,-182.5477 228.6423,-188.5035 230.4438,-181.7393"/>
</g>
<!-- 5 -->
<g id="node6" class="node">
<title>5</title>
<path fill="none" stroke="#d8cb56" stroke-width="2" stroke-dasharray="5,2" d="M1173,-329C1173,-329 1082,-329 1082,-329 1076,-329 1070,-323 1070,-317 1070,-317 1070,-305 1070,-305 1070,-299 1076,-293 1082,-293 1082,-293 1173,-293 1173,-293 1179,-293 1185,-299 1185,-305 1185,-305 1185,-317 1185,-317 1185,-323 1179,-329 1173,-329"/>
<text text-anchor="middle" x="1127.5" y="-314" font-family="sans" font-size="10.00" fill="#000000">get_pRef_genomes</text>
<text text-anchor="middle" x="1127.5" y="-303" font-family="sans" font-size="10.00" fill="#000000">phage: uvig_477575</text>
</g>
<!-- 5&#45;&gt;2 -->
<g id="edge35" class="edge">
<title>5&#45;&gt;2</title>
<path fill="none" stroke="#c0c0c0" stroke-width="2" d="M1185.0059,-301.3817C1204.2042,-298.3967 1225.7384,-295.2924 1245.5,-293 1467.7056,-267.2238 1732.3837,-249.9948 1854.5417,-242.8013"/>
<polygon fill="#c0c0c0" stroke="#c0c0c0" stroke-width="2" points="1855.0765,-246.2761 1864.855,-242.198 1854.6677,-239.2881 1855.0765,-246.2761"/>
</g>
<!-- 34 -->
<g id="node35" class="node">
<title>34</title>
<path fill="none" stroke="#56d8a9" stroke-width="2" stroke-dasharray="5,2" d="M327,-182.5C327,-182.5 250,-182.5 250,-182.5 244,-182.5 238,-176.5 238,-170.5 238,-170.5 238,-158.5 238,-158.5 238,-152.5 244,-146.5 250,-146.5 250,-146.5 327,-146.5 327,-146.5 333,-146.5 339,-152.5 339,-158.5 339,-158.5 339,-170.5 339,-170.5 339,-176.5 333,-182.5 327,-182.5"/>
<text text-anchor="middle" x="288.5" y="-162" font-family="sans" font-size="10.00" fill="#000000">sketch_pRef_sigs</text>
</g>
<!-- 5&#45;&gt;34 -->
<g id="edge64" class="edge">
<title>5&#45;&gt;34</title>
<path fill="none" stroke="#c0c0c0" stroke-width="2" d="M1069.5533,-305.1375C940.7248,-291.3553 621.0956,-253.0183 348.6115,-185.0817"/>
<polygon fill="#c0c0c0" stroke="#c0c0c0" stroke-width="2" points="349.083,-181.5914 338.5316,-182.5494 347.3774,-188.3805 349.083,-181.5914"/>
</g>
<!-- 6 -->
<g id="node7" class="node">
<title>6</title>
<path fill="none" stroke="#d8cb56" stroke-width="2" stroke-dasharray="5,2" d="M1358,-329C1358,-329 1267,-329 1267,-329 1261,-329 1255,-323 1255,-317 1255,-317 1255,-305 1255,-305 1255,-299 1261,-293 1267,-293 1267,-293 1358,-293 1358,-293 1364,-293 1370,-299 1370,-305 1370,-305 1370,-317 1370,-317 1370,-323 1364,-329 1358,-329"/>
<text text-anchor="middle" x="1312.5" y="-314" font-family="sans" font-size="10.00" fill="#000000">get_pRef_genomes</text>
<text text-anchor="middle" x="1312.5" y="-303" font-family="sans" font-size="10.00" fill="#000000">phage: uvig_560376</text>
</g>
<!-- 6&#45;&gt;2 -->
<g id="edge36" class="edge">
<title>6&#45;&gt;2</title>
<path fill="none" stroke="#c0c0c0" stroke-width="2" d="M1370.4096,-298.9831C1382.0004,-296.8064 1394.1134,-294.6933 1405.5,-293 1565.8554,-269.1536 1755.7417,-252.1837 1854.7507,-244.182"/>
<polygon fill="#c0c0c0" stroke="#c0c0c0" stroke-width="2" points="1855.2276,-247.6551 1864.9155,-243.3663 1854.6676,-240.6775 1855.2276,-247.6551"/>
</g>
<!-- 35 -->
<g id="node36" class="node">
<title>35</title>
<path fill="none" stroke="#56d8a9" stroke-width="2" stroke-dasharray="5,2" d="M446,-182.5C446,-182.5 369,-182.5 369,-182.5 363,-182.5 357,-176.5 357,-170.5 357,-170.5 357,-158.5 357,-158.5 357,-152.5 363,-146.5 369,-146.5 369,-146.5 446,-146.5 446,-146.5 452,-146.5 458,-152.5 458,-158.5 458,-158.5 458,-170.5 458,-170.5 458,-176.5 452,-182.5 446,-182.5"/>
<text text-anchor="middle" x="407.5" y="-162" font-family="sans" font-size="10.00" fill="#000000">sketch_pRef_sigs</text>
</g>
<!-- 6&#45;&gt;35 -->
<g id="edge65" class="edge">
<title>6&#45;&gt;35</title>
<path fill="none" stroke="#c0c0c0" stroke-width="2" d="M1254.7016,-302.226C1235.257,-299.2826 1213.4406,-295.9893 1193.5,-293 873.7652,-245.0692 785.5245,-262.5765 467.166,-184.9441"/>
<polygon fill="#c0c0c0" stroke="#c0c0c0" stroke-width="2" points="467.7425,-181.4818 457.1967,-182.5004 466.0759,-188.2805 467.7425,-181.4818"/>
</g>
<!-- 7 -->
<g id="node8" class="node">
<title>7</title>
<path fill="none" stroke="#d88d56" stroke-width="2" stroke-dasharray="5,2" d="M1526.5,-329C1526.5,-329 1426.5,-329 1426.5,-329 1420.5,-329 1414.5,-323 1414.5,-317 1414.5,-317 1414.5,-305 1414.5,-305 1414.5,-299 1420.5,-293 1426.5,-293 1426.5,-293 1526.5,-293 1526.5,-293 1532.5,-293 1538.5,-299 1538.5,-305 1538.5,-305 1538.5,-317 1538.5,-317 1538.5,-323 1532.5,-329 1526.5,-329"/>
<text text-anchor="middle" x="1476.5" y="-314" font-family="sans" font-size="10.00" fill="#000000">get_hRef_genomes</text>
<text text-anchor="middle" x="1476.5" y="-303" font-family="sans" font-size="10.00" fill="#000000">host: GCA_003436725</text>
</g>
<!-- 7&#45;&gt;2 -->
<g id="edge37" class="edge">
<title>7&#45;&gt;2</title>
<path fill="none" stroke="#c0c0c0" stroke-width="2" d="M1538.7981,-297.1936C1546.1007,-295.7108 1553.4562,-294.2787 1560.5,-293 1662.7571,-274.436 1782.1147,-257.5508 1854.982,-247.7768"/>
<polygon fill="#c0c0c0" stroke="#c0c0c0" stroke-width="2" points="1855.5002,-251.2388 1864.9487,-246.4455 1854.5733,-244.3004 1855.5002,-251.2388"/>
</g>
<!-- 36 -->
<g id="node37" class="node">
<title>36</title>
<path fill="none" stroke="#afd856" stroke-width="2" stroke-dasharray="5,2" d="M565,-182.5C565,-182.5 488,-182.5 488,-182.5 482,-182.5 476,-176.5 476,-170.5 476,-170.5 476,-158.5 476,-158.5 476,-152.5 482,-146.5 488,-146.5 488,-146.5 565,-146.5 565,-146.5 571,-146.5 577,-152.5 577,-158.5 577,-158.5 577,-170.5 577,-170.5 577,-176.5 571,-182.5 565,-182.5"/>
<text text-anchor="middle" x="526.5" y="-162" font-family="sans" font-size="10.00" fill="#000000">sketch_hRef_sigs</text>
</g>
<!-- 7&#45;&gt;36 -->
<g id="edge66" class="edge">
<title>7&#45;&gt;36</title>
<path fill="none" stroke="#c0c0c0" stroke-width="2" d="M1414.3633,-299.1393C1402.4749,-296.997 1390.1155,-294.8567 1378.5,-293 1205.9675,-265.4216 774.0064,-227.7423 586.0386,-184.8513"/>
<polygon fill="#c0c0c0" stroke="#c0c0c0" stroke-width="2" points="586.7208,-181.4165 576.1861,-182.5441 585.1246,-188.2321 586.7208,-181.4165"/>
</g>
<!-- 8 -->
<g id="node9" class="node">
<title>8</title>
<path fill="none" stroke="#d88d56" stroke-width="2" stroke-dasharray="5,2" d="M1681.5,-329C1681.5,-329 1581.5,-329 1581.5,-329 1575.5,-329 1569.5,-323 1569.5,-317 1569.5,-317 1569.5,-305 1569.5,-305 1569.5,-299 1575.5,-293 1581.5,-293 1581.5,-293 1681.5,-293 1681.5,-293 1687.5,-293 1693.5,-299 1693.5,-305 1693.5,-305 1693.5,-317 1693.5,-317 1693.5,-323 1687.5,-329 1681.5,-329"/>
<text text-anchor="middle" x="1631.5" y="-314" font-family="sans" font-size="10.00" fill="#000000">get_hRef_genomes</text>
<text text-anchor="middle" x="1631.5" y="-303" font-family="sans" font-size="10.00" fill="#000000">host: GCA_003435635</text>
</g>
<!-- 8&#45;&gt;2 -->
<g id="edge38" class="edge">
<title>8&#45;&gt;2</title>
<path fill="none" stroke="#c0c0c0" stroke-width="2" d="M1693.5699,-295.6425C1741.0432,-283.8965 1806.414,-267.7223 1855.1504,-255.6638"/>
<polygon fill="#c0c0c0" stroke="#c0c0c0" stroke-width="2" points="1856.1085,-259.0324 1864.9752,-253.2329 1854.4272,-252.2373 1856.1085,-259.0324"/>
</g>
<!-- 37 -->
<g id="node38" class="node">
<title>37</title>
<path fill="none" stroke="#afd856" stroke-width="2" stroke-dasharray="5,2" d="M684,-182.5C684,-182.5 607,-182.5 607,-182.5 601,-182.5 595,-176.5 595,-170.5 595,-170.5 595,-158.5 595,-158.5 595,-152.5 601,-146.5 607,-146.5 607,-146.5 684,-146.5 684,-146.5 690,-146.5 696,-152.5 696,-158.5 696,-158.5 696,-170.5 696,-170.5 696,-176.5 690,-182.5 684,-182.5"/>
<text text-anchor="middle" x="645.5" y="-162" font-family="sans" font-size="10.00" fill="#000000">sketch_hRef_sigs</text>
</g>
<!-- 8&#45;&gt;37 -->
<g id="edge67" class="edge">
<title>8&#45;&gt;37</title>
<path fill="none" stroke="#c0c0c0" stroke-width="2" d="M1569.2274,-297.0494C1561.9201,-295.5924 1554.5566,-294.2059 1547.5,-293 1502.8221,-285.3649 809.4326,-202.8221 705.0736,-184.5177"/>
<polygon fill="#c0c0c0" stroke="#c0c0c0" stroke-width="2" points="705.6667,-181.0674 695.1793,-182.5727 704.3164,-187.936 705.6667,-181.0674"/>
</g>
<!-- 9 -->
<g id="node10" class="node">
<title>9</title>
<path fill="none" stroke="#d88d56" stroke-width="2" stroke-dasharray="5,2" d="M1830.5,-329C1830.5,-329 1730.5,-329 1730.5,-329 1724.5,-329 1718.5,-323 1718.5,-317 1718.5,-317 1718.5,-305 1718.5,-305 1718.5,-299 1724.5,-293 1730.5,-293 1730.5,-293 1830.5,-293 1830.5,-293 1836.5,-293 1842.5,-299 1842.5,-305 1842.5,-305 1842.5,-317 1842.5,-317 1842.5,-323 1836.5,-329 1830.5,-329"/>
<text text-anchor="middle" x="1780.5" y="-314" font-family="sans" font-size="10.00" fill="#000000">get_hRef_genomes</text>
<text text-anchor="middle" x="1780.5" y="-303" font-family="sans" font-size="10.00" fill="#000000">host: GCA_003470775</text>
</g>
<!-- 9&#45;&gt;2 -->
<g id="edge39" class="edge">
<title>9&#45;&gt;2</title>
<path fill="none" stroke="#c0c0c0" stroke-width="2" d="M1816.3326,-292.8314C1834.9157,-283.4089 1857.7989,-271.8062 1877.5565,-261.7883"/>
<polygon fill="#c0c0c0" stroke="#c0c0c0" stroke-width="2" points="1879.3427,-264.8069 1886.6789,-257.1628 1876.177,-258.5635 1879.3427,-264.8069"/>
</g>
<!-- 38 -->
<g id="node39" class="node">
<title>38</title>
<path fill="none" stroke="#afd856" stroke-width="2" stroke-dasharray="5,2" d="M803,-182.5C803,-182.5 726,-182.5 726,-182.5 720,-182.5 714,-176.5 714,-170.5 714,-170.5 714,-158.5 714,-158.5 714,-152.5 720,-146.5 726,-146.5 726,-146.5 803,-146.5 803,-146.5 809,-146.5 815,-152.5 815,-158.5 815,-158.5 815,-170.5 815,-170.5 815,-176.5 809,-182.5 803,-182.5"/>
<text text-anchor="middle" x="764.5" y="-162" font-family="sans" font-size="10.00" fill="#000000">sketch_hRef_sigs</text>
</g>
<!-- 9&#45;&gt;38 -->
<g id="edge68" class="edge">
<title>9&#45;&gt;38</title>
<path fill="none" stroke="#c0c0c0" stroke-width="2" d="M1718.4575,-296.0813C1713.0743,-294.9696 1707.6997,-293.9236 1702.5,-293 1449.3522,-248.0347 1383.7261,-252.0693 1128.5,-221 996.1794,-204.8923 958.2913,-215.0755 823.7063,-184.7703"/>
<polygon fill="#c0c0c0" stroke="#c0c0c0" stroke-width="2" points="824.3749,-181.3329 813.8465,-182.5174 822.8156,-188.157 824.3749,-181.3329"/>
</g>
<!-- 10 -->
<g id="node11" class="node">
<title>10</title>
<path fill="none" stroke="#d88d56" stroke-width="2" stroke-dasharray="5,2" d="M1973.5,-329C1973.5,-329 1875.5,-329 1875.5,-329 1869.5,-329 1863.5,-323 1863.5,-317 1863.5,-317 1863.5,-305 1863.5,-305 1863.5,-299 1869.5,-293 1875.5,-293 1875.5,-293 1973.5,-293 1973.5,-293 1979.5,-293 1985.5,-299 1985.5,-305 1985.5,-305 1985.5,-317 1985.5,-317 1985.5,-323 1979.5,-329 1973.5,-329"/>
<text text-anchor="middle" x="1924.5" y="-314" font-family="sans" font-size="10.00" fill="#000000">get_hRef_genomes</text>
<text text-anchor="middle" x="1924.5" y="-303" font-family="sans" font-size="10.00" fill="#000000">host: GCF_000155205</text>
</g>
<!-- 10&#45;&gt;2 -->
<g id="edge40" class="edge">
<title>10&#45;&gt;2</title>
<path fill="none" stroke="#c0c0c0" stroke-width="2" d="M1923.9953,-292.8314C1923.7814,-285.131 1923.5271,-275.9743 1923.2894,-267.4166"/>
<polygon fill="#c0c0c0" stroke="#c0c0c0" stroke-width="2" points="1926.7879,-267.3122 1923.0115,-257.4133 1919.7906,-267.5066 1926.7879,-267.3122"/>
</g>
<!-- 39 -->
<g id="node40" class="node">
<title>39</title>
<path fill="none" stroke="#afd856" stroke-width="2" stroke-dasharray="5,2" d="M3015,-182.5C3015,-182.5 2938,-182.5 2938,-182.5 2932,-182.5 2926,-176.5 2926,-170.5 2926,-170.5 2926,-158.5 2926,-158.5 2926,-152.5 2932,-146.5 2938,-146.5 2938,-146.5 3015,-146.5 3015,-146.5 3021,-146.5 3027,-152.5 3027,-158.5 3027,-158.5 3027,-170.5 3027,-170.5 3027,-176.5 3021,-182.5 3015,-182.5"/>
<text text-anchor="middle" x="2976.5" y="-162" font-family="sans" font-size="10.00" fill="#000000">sketch_hRef_sigs</text>
</g>
<!-- 10&#45;&gt;39 -->
<g id="edge69" class="edge">
<title>10&#45;&gt;39</title>
<path fill="none" stroke="#c0c0c0" stroke-width="2" d="M1985.6845,-302.6238C2105.1445,-286.3394 2377.8339,-249.5087 2607.5,-221 2744.7092,-203.9681 2781.6494,-215.5246 2916.5,-185 2916.6007,-184.9772 2916.7014,-184.9543 2916.8022,-184.9313"/>
<polygon fill="#c0c0c0" stroke="#c0c0c0" stroke-width="2" points="2917.4787,-188.3707 2926.3095,-182.5168 2915.7556,-181.5861 2917.4787,-188.3707"/>
</g>
<!-- 11 -->
<g id="node12" class="node">
<title>11</title>
<path fill="none" stroke="#d88d56" stroke-width="2" stroke-dasharray="5,2" d="M2313.5,-329C2313.5,-329 2213.5,-329 2213.5,-329 2207.5,-329 2201.5,-323 2201.5,-317 2201.5,-317 2201.5,-305 2201.5,-305 2201.5,-299 2207.5,-293 2213.5,-293 2213.5,-293 2313.5,-293 2313.5,-293 2319.5,-293 2325.5,-299 2325.5,-305 2325.5,-305 2325.5,-317 2325.5,-317 2325.5,-323 2319.5,-329 2313.5,-329"/>
<text text-anchor="middle" x="2263.5" y="-314" font-family="sans" font-size="10.00" fill="#000000">get_hRef_genomes</text>
<text text-anchor="middle" x="2263.5" y="-303" font-family="sans" font-size="10.00" fill="#000000">host: GCA_003470035</text>
</g>
<!-- 11&#45;&gt;2 -->
<g id="edge41" class="edge">
<title>11&#45;&gt;2</title>
<path fill="none" stroke="#c0c0c0" stroke-width="2" d="M2201.3519,-297.8778C2141.6652,-285.2754 2051.7301,-266.2861 1990.2386,-253.3026"/>
<polygon fill="#c0c0c0" stroke="#c0c0c0" stroke-width="2" points="1990.7509,-249.8336 1980.2435,-251.1922 1989.3047,-256.6826 1990.7509,-249.8336"/>
</g>
<!-- 40 -->
<g id="node41" class="node">
<title>40</title>
<path fill="none" stroke="#afd856" stroke-width="2" stroke-dasharray="5,2" d="M3134,-182.5C3134,-182.5 3057,-182.5 3057,-182.5 3051,-182.5 3045,-176.5 3045,-170.5 3045,-170.5 3045,-158.5 3045,-158.5 3045,-152.5 3051,-146.5 3057,-146.5 3057,-146.5 3134,-146.5 3134,-146.5 3140,-146.5 3146,-152.5 3146,-158.5 3146,-158.5 3146,-170.5 3146,-170.5 3146,-176.5 3140,-182.5 3134,-182.5"/>
<text text-anchor="middle" x="3095.5" y="-162" font-family="sans" font-size="10.00" fill="#000000">sketch_hRef_sigs</text>
</g>
<!-- 11&#45;&gt;40 -->
<g id="edge70" class="edge">
<title>11&#45;&gt;40</title>
<path fill="none" stroke="#c0c0c0" stroke-width="2" d="M2325.7368,-301.1562C2494.4669,-274.4306 2953.0128,-201.5349 3035.6645,-184.7128"/>
<polygon fill="#c0c0c0" stroke="#c0c0c0" stroke-width="2" points="3036.4591,-188.1217 3045.4672,-182.5444 3034.9472,-181.2869 3036.4591,-188.1217"/>
</g>
<!-- 12 -->
<g id="node13" class="node">
<title>12</title>
<path fill="none" stroke="#d88d56" stroke-width="2" stroke-dasharray="5,2" d="M2554.5,-329C2554.5,-329 2454.5,-329 2454.5,-329 2448.5,-329 2442.5,-323 2442.5,-317 2442.5,-317 2442.5,-305 2442.5,-305 2442.5,-299 2448.5,-293 2454.5,-293 2454.5,-293 2554.5,-293 2554.5,-293 2560.5,-293 2566.5,-299 2566.5,-305 2566.5,-305 2566.5,-317 2566.5,-317 2566.5,-323 2560.5,-329 2554.5,-329"/>
<text text-anchor="middle" x="2504.5" y="-314" font-family="sans" font-size="10.00" fill="#000000">get_hRef_genomes</text>
<text text-anchor="middle" x="2504.5" y="-303" font-family="sans" font-size="10.00" fill="#000000">host: GCA_003472405</text>
</g>
<!-- 12&#45;&gt;2 -->
<g id="edge42" class="edge">
<title>12&#45;&gt;2</title>
<path fill="none" stroke="#c0c0c0" stroke-width="2" d="M2442.4916,-303.3289C2332.4616,-289.7169 2103.9618,-261.4489 1990.0717,-247.3594"/>
<polygon fill="#c0c0c0" stroke="#c0c0c0" stroke-width="2" points="1990.4334,-243.8775 1980.0793,-246.1232 1989.5739,-250.8246 1990.4334,-243.8775"/>
</g>
<!-- 41 -->
<g id="node42" class="node">
<title>41</title>
<path fill="none" stroke="#afd856" stroke-width="2" stroke-dasharray="5,2" d="M3253,-182.5C3253,-182.5 3176,-182.5 3176,-182.5 3170,-182.5 3164,-176.5 3164,-170.5 3164,-170.5 3164,-158.5 3164,-158.5 3164,-152.5 3170,-146.5 3176,-146.5 3176,-146.5 3253,-146.5 3253,-146.5 3259,-146.5 3265,-152.5 3265,-158.5 3265,-158.5 3265,-170.5 3265,-170.5 3265,-176.5 3259,-182.5 3253,-182.5"/>
<text text-anchor="middle" x="3214.5" y="-162" font-family="sans" font-size="10.00" fill="#000000">sketch_hRef_sigs</text>
</g>
<!-- 12&#45;&gt;41 -->
<g id="edge71" class="edge">
<title>12&#45;&gt;41</title>
<path fill="none" stroke="#c0c0c0" stroke-width="2" d="M2566.6544,-302.0101C2681.5606,-284.7315 2934.7798,-243.5731 3154.348,-185.1549"/>
<polygon fill="#c0c0c0" stroke="#c0c0c0" stroke-width="2" points="3155.3636,-188.5064 3164.1175,-182.5381 3153.5524,-181.7447 3155.3636,-188.5064"/>
</g>
<!-- 13 -->
<g id="node14" class="node">
<title>13</title>
<path fill="none" stroke="#d88d56" stroke-width="2" stroke-dasharray="5,2" d="M2746.5,-329C2746.5,-329 2646.5,-329 2646.5,-329 2640.5,-329 2634.5,-323 2634.5,-317 2634.5,-317 2634.5,-305 2634.5,-305 2634.5,-299 2640.5,-293 2646.5,-293 2646.5,-293 2746.5,-293 2746.5,-293 2752.5,-293 2758.5,-299 2758.5,-305 2758.5,-305 2758.5,-317 2758.5,-317 2758.5,-323 2752.5,-329 2746.5,-329"/>
<text text-anchor="middle" x="2696.5" y="-314" font-family="sans" font-size="10.00" fill="#000000">get_hRef_genomes</text>
<text text-anchor="middle" x="2696.5" y="-303" font-family="sans" font-size="10.00" fill="#000000">host: GCA_003471505</text>
</g>
<!-- 13&#45;&gt;2 -->
<g id="edge43" class="edge">
<title>13&#45;&gt;2</title>
<path fill="none" stroke="#c0c0c0" stroke-width="2" d="M2634.425,-300.9724C2615.5378,-298.1355 2594.6988,-295.2194 2575.5,-293 2362.4838,-268.3746 2109.112,-250.7356 1990.3165,-243.1463"/>
<polygon fill="#c0c0c0" stroke="#c0c0c0" stroke-width="2" points="1990.4785,-239.6496 1980.2767,-242.5084 1990.0346,-246.6355 1990.4785,-239.6496"/>
</g>
<!-- 42 -->
<g id="node43" class="node">
<title>42</title>
<path fill="none" stroke="#afd856" stroke-width="2" stroke-dasharray="5,2" d="M3372,-182.5C3372,-182.5 3295,-182.5 3295,-182.5 3289,-182.5 3283,-176.5 3283,-170.5 3283,-170.5 3283,-158.5 3283,-158.5 3283,-152.5 3289,-146.5 3295,-146.5 3295,-146.5 3372,-146.5 3372,-146.5 3378,-146.5 3384,-152.5 3384,-158.5 3384,-158.5 3384,-170.5 3384,-170.5 3384,-176.5 3378,-182.5 3372,-182.5"/>
<text text-anchor="middle" x="3333.5" y="-162" font-family="sans" font-size="10.00" fill="#000000">sketch_hRef_sigs</text>
</g>
<!-- 13&#45;&gt;42 -->
<g id="edge72" class="edge">
<title>13&#45;&gt;42</title>
<path fill="none" stroke="#c0c0c0" stroke-width="2" d="M2758.6682,-299.0013C2769.9156,-296.928 2781.5478,-294.8475 2792.5,-293 2898.8573,-275.0583 2927.2171,-280.4367 3032.5,-257 3138.9318,-233.3076 3166.1748,-220.1801 3273.1404,-185.4103"/>
<polygon fill="#c0c0c0" stroke="#c0c0c0" stroke-width="2" points="3274.2652,-188.7251 3282.7003,-182.3142 3272.1083,-182.0656 3274.2652,-188.7251"/>
</g>
<!-- 14 -->
<g id="node15" class="node">
<title>14</title>
<path fill="none" stroke="#d88d56" stroke-width="2" stroke-dasharray="5,2" d="M2913.5,-329C2913.5,-329 2813.5,-329 2813.5,-329 2807.5,-329 2801.5,-323 2801.5,-317 2801.5,-317 2801.5,-305 2801.5,-305 2801.5,-299 2807.5,-293 2813.5,-293 2813.5,-293 2913.5,-293 2913.5,-293 2919.5,-293 2925.5,-299 2925.5,-305 2925.5,-305 2925.5,-317 2925.5,-317 2925.5,-323 2919.5,-329 2913.5,-329"/>
<text text-anchor="middle" x="2863.5" y="-314" font-family="sans" font-size="10.00" fill="#000000">get_hRef_genomes</text>
<text text-anchor="middle" x="2863.5" y="-303" font-family="sans" font-size="10.00" fill="#000000">host: GCA_003437995</text>
</g>
<!-- 14&#45;&gt;2 -->
<g id="edge44" class="edge">
<title>14&#45;&gt;2</title>
<path fill="none" stroke="#c0c0c0" stroke-width="2" d="M2801.4459,-298.2248C2790.1866,-296.2324 2778.5208,-294.3802 2767.5,-293 2480.0535,-257.0025 2134.4206,-244.4268 1990.5226,-240.5445"/>
<polygon fill="#c0c0c0" stroke="#c0c0c0" stroke-width="2" points="1990.1916,-237.0346 1980.1026,-240.2692 1990.0066,-244.0322 1990.1916,-237.0346"/>
</g>
<!-- 43 -->
<g id="node44" class="node">
<title>43</title>
<path fill="none" stroke="#afd856" stroke-width="2" stroke-dasharray="5,2" d="M3491,-182.5C3491,-182.5 3414,-182.5 3414,-182.5 3408,-182.5 3402,-176.5 3402,-170.5 3402,-170.5 3402,-158.5 3402,-158.5 3402,-152.5 3408,-146.5 3414,-146.5 3414,-146.5 3491,-146.5 3491,-146.5 3497,-146.5 3503,-152.5 3503,-158.5 3503,-158.5 3503,-170.5 3503,-170.5 3503,-176.5 3497,-182.5 3491,-182.5"/>
<text text-anchor="middle" x="3452.5" y="-162" font-family="sans" font-size="10.00" fill="#000000">sketch_hRef_sigs</text>
</g>
<!-- 14&#45;&gt;43 -->
<g id="edge73" class="edge">
<title>14&#45;&gt;43</title>
<path fill="none" stroke="#c0c0c0" stroke-width="2" d="M2925.9463,-296.9516C2932.8672,-295.5455 2939.824,-294.1973 2946.5,-293 3058.2935,-272.9511 3089.3403,-284.6512 3199.5,-257 3219.0492,-252.0929 3326.9983,-211.8484 3395.4244,-186.0845"/>
<polygon fill="#c0c0c0" stroke="#c0c0c0" stroke-width="2" points="3396.6803,-189.3516 3404.804,-182.5504 3394.2121,-182.8011 3396.6803,-189.3516"/>
</g>
<!-- 15 -->
<g id="node16" class="node">
<title>15</title>
<path fill="none" stroke="#d88d56" stroke-width="2" stroke-dasharray="5,2" d="M3067.5,-329C3067.5,-329 2967.5,-329 2967.5,-329 2961.5,-329 2955.5,-323 2955.5,-317 2955.5,-317 2955.5,-305 2955.5,-305 2955.5,-299 2961.5,-293 2967.5,-293 2967.5,-293 3067.5,-293 3067.5,-293 3073.5,-293 3079.5,-299 3079.5,-305 3079.5,-305 3079.5,-317 3079.5,-317 3079.5,-323 3073.5,-329 3067.5,-329"/>
<text text-anchor="middle" x="3017.5" y="-314" font-family="sans" font-size="10.00" fill="#000000">get_hRef_genomes</text>
<text text-anchor="middle" x="3017.5" y="-303" font-family="sans" font-size="10.00" fill="#000000">host: GCA_003467905</text>
</g>
<!-- 15&#45;&gt;2 -->
<g id="edge45" class="edge">
<title>15&#45;&gt;2</title>
<path fill="none" stroke="#c0c0c0" stroke-width="2" d="M2955.147,-296.3563C2948.2086,-295.0616 2941.2223,-293.9023 2934.5,-293 2751.1928,-268.3942 2186.4314,-247.7833 1990.379,-241.2009"/>
<polygon fill="#c0c0c0" stroke="#c0c0c0" stroke-width="2" points="1990.3251,-237.6972 1980.2137,-240.8611 1990.0912,-244.6933 1990.3251,-237.6972"/>
</g>
<!-- 44 -->
<g id="node45" class="node">
<title>44</title>
<path fill="none" stroke="#afd856" stroke-width="2" stroke-dasharray="5,2" d="M3610,-182.5C3610,-182.5 3533,-182.5 3533,-182.5 3527,-182.5 3521,-176.5 3521,-170.5 3521,-170.5 3521,-158.5 3521,-158.5 3521,-152.5 3527,-146.5 3533,-146.5 3533,-146.5 3610,-146.5 3610,-146.5 3616,-146.5 3622,-152.5 3622,-158.5 3622,-158.5 3622,-170.5 3622,-170.5 3622,-176.5 3616,-182.5 3610,-182.5"/>
<text text-anchor="middle" x="3571.5" y="-162" font-family="sans" font-size="10.00" fill="#000000">sketch_hRef_sigs</text>
</g>
<!-- 15&#45;&gt;44 -->
<g id="edge74" class="edge">
<title>15&#45;&gt;44</title>
<path fill="none" stroke="#c0c0c0" stroke-width="2" d="M3079.6296,-296.1487C3084.653,-295.0478 3089.6568,-293.9843 3094.5,-293 3186.4392,-274.3141 3213.5386,-286.7966 3302.5,-257 3335.673,-245.8891 3339.7998,-233.4337 3372.5,-221 3429.6197,-199.2812 3449.0925,-203.0997 3510.8778,-185.3472"/>
<polygon fill="#c0c0c0" stroke="#c0c0c0" stroke-width="2" points="3512.1385,-188.6245 3520.7384,-182.4364 3510.1566,-181.9109 3512.1385,-188.6245"/>
</g>
<!-- 16 -->
<g id="node17" class="node">
<title>16</title>
<path fill="none" stroke="#d88d56" stroke-width="2" stroke-dasharray="5,2" d="M3215.5,-329C3215.5,-329 3115.5,-329 3115.5,-329 3109.5,-329 3103.5,-323 3103.5,-317 3103.5,-317 3103.5,-305 3103.5,-305 3103.5,-299 3109.5,-293 3115.5,-293 3115.5,-293 3215.5,-293 3215.5,-293 3221.5,-293 3227.5,-299 3227.5,-305 3227.5,-305 3227.5,-317 3227.5,-317 3227.5,-323 3221.5,-329 3215.5,-329"/>
<text text-anchor="middle" x="3165.5" y="-314" font-family="sans" font-size="10.00" fill="#000000">get_hRef_genomes</text>
<text text-anchor="middle" x="3165.5" y="-303" font-family="sans" font-size="10.00" fill="#000000">host: GCA_003473205</text>
</g>
<!-- 16&#45;&gt;2 -->
<g id="edge46" class="edge">
<title>16&#45;&gt;2</title>
<path fill="none" stroke="#c0c0c0" stroke-width="2" d="M3103.4857,-295.4736C3098.4365,-294.5241 3093.3953,-293.6797 3088.5,-293 2874.2258,-263.2496 2206.3461,-245.5629 1990.5117,-240.5107"/>
<polygon fill="#c0c0c0" stroke="#c0c0c0" stroke-width="2" points="1990.3539,-237.0062 1980.2752,-240.2726 1990.1911,-244.0043 1990.3539,-237.0062"/>
</g>
<!-- 45 -->
<g id="node46" class="node">
<title>45</title>
<path fill="none" stroke="#afd856" stroke-width="2" stroke-dasharray="5,2" d="M3729,-182.5C3729,-182.5 3652,-182.5 3652,-182.5 3646,-182.5 3640,-176.5 3640,-170.5 3640,-170.5 3640,-158.5 3640,-158.5 3640,-152.5 3646,-146.5 3652,-146.5 3652,-146.5 3729,-146.5 3729,-146.5 3735,-146.5 3741,-152.5 3741,-158.5 3741,-158.5 3741,-170.5 3741,-170.5 3741,-176.5 3735,-182.5 3729,-182.5"/>
<text text-anchor="middle" x="3690.5" y="-162" font-family="sans" font-size="10.00" fill="#000000">sketch_hRef_sigs</text>
</g>
<!-- 16&#45;&gt;45 -->
<g id="edge75" class="edge">
<title>16&#45;&gt;45</title>
<path fill="none" stroke="#c0c0c0" stroke-width="2" d="M3227.6151,-295.072C3268.7627,-284.4527 3323.9076,-270.0914 3372.5,-257 3427.4776,-242.1883 3561.1416,-206.3847 3630.0405,-185.3629"/>
<polygon fill="#c0c0c0" stroke="#c0c0c0" stroke-width="2" points="3631.1976,-188.6687 3639.7189,-182.3729 3629.1313,-181.9806 3631.1976,-188.6687"/>
</g>
<!-- 17 -->
<g id="node18" class="node">
<title>17</title>
<path fill="none" stroke="#d88d56" stroke-width="2" stroke-dasharray="5,2" d="M3360.5,-329C3360.5,-329 3260.5,-329 3260.5,-329 3254.5,-329 3248.5,-323 3248.5,-317 3248.5,-317 3248.5,-305 3248.5,-305 3248.5,-299 3254.5,-293 3260.5,-293 3260.5,-293 3360.5,-293 3360.5,-293 3366.5,-293 3372.5,-299 3372.5,-305 3372.5,-305 3372.5,-317 3372.5,-317 3372.5,-323 3366.5,-329 3360.5,-329"/>
<text text-anchor="middle" x="3310.5" y="-314" font-family="sans" font-size="10.00" fill="#000000">get_hRef_genomes</text>
<text text-anchor="middle" x="3310.5" y="-303" font-family="sans" font-size="10.00" fill="#000000">host: GCA_003471045</text>
</g>
<!-- 17&#45;&gt;2 -->
<g id="edge47" class="edge">
<title>17&#45;&gt;2</title>
<path fill="none" stroke="#c0c0c0" stroke-width="2" d="M3248.4941,-294.9763C3244.4513,-294.2234 3240.4278,-293.5529 3236.5,-293 2992.1416,-258.6042 2223.5919,-243.7938 1990.3075,-240.0173"/>
<polygon fill="#c0c0c0" stroke="#c0c0c0" stroke-width="2" points="1990.3166,-236.5171 1980.2617,-239.8561 1990.2042,-243.5162 1990.3166,-236.5171"/>
</g>
<!-- 46 -->
<g id="node47" class="node">
<title>46</title>
<path fill="none" stroke="#afd856" stroke-width="2" stroke-dasharray="5,2" d="M3848,-182.5C3848,-182.5 3771,-182.5 3771,-182.5 3765,-182.5 3759,-176.5 3759,-170.5 3759,-170.5 3759,-158.5 3759,-158.5 3759,-152.5 3765,-146.5 3771,-146.5 3771,-146.5 3848,-146.5 3848,-146.5 3854,-146.5 3860,-152.5 3860,-158.5 3860,-158.5 3860,-170.5 3860,-170.5 3860,-176.5 3854,-182.5 3848,-182.5"/>
<text text-anchor="middle" x="3809.5" y="-162" font-family="sans" font-size="10.00" fill="#000000">sketch_hRef_sigs</text>
</g>
<!-- 17&#45;&gt;46 -->
<g id="edge76" class="edge">
<title>17&#45;&gt;46</title>
<path fill="none" stroke="#c0c0c0" stroke-width="2" d="M3372.7622,-294.3416C3456.3844,-271.7082 3609.714,-229.2955 3749.1243,-185.3771"/>
<polygon fill="#c0c0c0" stroke="#c0c0c0" stroke-width="2" points="3750.2304,-188.6983 3758.7109,-182.3476 3748.1211,-182.0236 3750.2304,-188.6983"/>
</g>
<!-- 18&#45;&gt;0 -->
<g id="edge2" class="edge">
<title>18&#45;&gt;0</title>
<path fill="none" stroke="#c0c0c0" stroke-width="2" d="M1081.2589,-145.7414C1084.0314,-145.0991 1086.7885,-144.5129 1089.5,-144 1197.651,-123.542 1481.4835,-149.3255 1583.5,-108 1606.6011,-98.642 1603.936,-82.5878 1626.5,-72 1672.0429,-50.6297 1816.6172,-30.848 1885.4206,-22.362"/>
<polygon fill="#c0c0c0" stroke="#c0c0c0" stroke-width="2" points="1885.8912,-25.8307 1895.3939,-21.1458 1885.0437,-18.8821 1885.8912,-25.8307"/>
</g>
<!-- 18&#45;&gt;47 -->
<g id="edge93" class="edge">
<title>18&#45;&gt;47</title>
<path fill="none" stroke="#c0c0c0" stroke-width="2" d="M1081.2539,-145.7144C1084.0277,-145.0794 1086.7864,-144.5021 1089.5,-144 1108.4997,-140.4848 1674.2619,-105.3309 1862.3578,-93.7084"/>
<polygon fill="#c0c0c0" stroke="#c0c0c0" stroke-width="2" points="1862.5856,-97.2011 1872.3507,-93.0911 1862.1539,-90.2144 1862.5856,-97.2011"/>
</g>
<!-- 19&#45;&gt;0 -->
<g id="edge3" class="edge">
<title>19&#45;&gt;0</title>
<path fill="none" stroke="#c0c0c0" stroke-width="2" d="M1214.2694,-145.7957C1217.0391,-145.1389 1219.7927,-144.5348 1222.5,-144 1399.35,-109.0674 1461.2341,-179.9957 1626.5,-108 1648.4272,-98.4477 1645.1797,-82.8394 1666.5,-72 1738.2831,-35.5048 1833.4181,-23.6594 1885.135,-19.8253"/>
<polygon fill="#c0c0c0" stroke="#c0c0c0" stroke-width="2" points="1885.4446,-23.3124 1895.1839,-19.1415 1884.9693,-16.3286 1885.4446,-23.3124"/>
</g>
<!-- 19&#45;&gt;47 -->
<g id="edge94" class="edge">
<title>19&#45;&gt;47</title>
<path fill="none" stroke="#c0c0c0" stroke-width="2" d="M1214.2616,-145.7557C1217.0334,-145.1096 1219.7896,-144.5187 1222.5,-144 1253.6714,-138.035 1697.5659,-106.0253 1861.8986,-94.3042"/>
<polygon fill="#c0c0c0" stroke="#c0c0c0" stroke-width="2" points="1862.5855,-97.7642 1872.3113,-93.5619 1862.0877,-90.7819 1862.5855,-97.7642"/>
</g>
<!-- 20&#45;&gt;0 -->
<g id="edge4" class="edge">
<title>20&#45;&gt;0</title>
<path fill="none" stroke="#c0c0c0" stroke-width="2" d="M1347.0707,-146.16C1350.2464,-145.3754 1353.4043,-144.6477 1356.5,-144 1492.2635,-115.5923 1540.4529,-165.8865 1666.5,-108 1687.9366,-98.1554 1684.7385,-83.1984 1705.5,-72 1763.5465,-40.6906 1840.1124,-27.1553 1885.0574,-21.5919"/>
<polygon fill="#c0c0c0" stroke="#c0c0c0" stroke-width="2" points="1885.7055,-25.0401 1895.2315,-20.4026 1884.8927,-18.0875 1885.7055,-25.0401"/>
</g>
<!-- 20&#45;&gt;47 -->
<g id="edge95" class="edge">
<title>20&#45;&gt;47</title>
<path fill="none" stroke="#c0c0c0" stroke-width="2" d="M1347.055,-146.0831C1350.2348,-145.3183 1353.3979,-144.616 1356.5,-144 1405.1551,-134.3385 1726.3695,-106.5558 1862.1134,-95.0665"/>
<polygon fill="#c0c0c0" stroke="#c0c0c0" stroke-width="2" points="1862.6673,-98.5323 1872.3369,-94.2024 1862.0776,-91.5572 1862.6673,-98.5323"/>
</g>
<!-- 21&#45;&gt;0 -->
<g id="edge5" class="edge">
<title>21&#45;&gt;0</title>
<path fill="none" stroke="#c0c0c0" stroke-width="2" d="M1489.7378,-146.1145C1492.6927,-145.3725 1495.6246,-144.6631 1498.5,-144 1589.4929,-123.0169 1621.7763,-149.3563 1705.5,-108 1726.6495,-97.5529 1724.0287,-83.7206 1744.5,-72 1789.4575,-46.2601 1847.9663,-31.575 1885.3897,-24.1974"/>
<polygon fill="#c0c0c0" stroke="#c0c0c0" stroke-width="2" points="1886.1843,-27.6092 1895.357,-22.3072 1884.88,-20.7317 1886.1843,-27.6092"/>
</g>
<!-- 21&#45;&gt;47 -->
<g id="edge96" class="edge">
<title>21&#45;&gt;47</title>
<path fill="none" stroke="#c0c0c0" stroke-width="2" d="M1489.7022,-145.9515C1492.6666,-145.2531 1495.6102,-144.5975 1498.5,-144 1566.6482,-129.91 1762.5323,-107.4801 1862.4002,-96.494"/>
<polygon fill="#c0c0c0" stroke="#c0c0c0" stroke-width="2" points="1862.7822,-99.9732 1872.3408,-95.4034 1862.0187,-93.0149 1862.7822,-99.9732"/>
</g>
<!-- 22&#45;&gt;0 -->
<g id="edge6" class="edge">
<title>22&#45;&gt;0</title>
<path fill="none" stroke="#c0c0c0" stroke-width="2" d="M1631.9661,-145.3733C1677.8815,-131.1381 1734.0296,-113.2944 1744.5,-108 1768.9366,-95.6436 1770.6234,-85.4065 1794.5,-72 1824.0572,-55.4039 1859.7402,-40.7546 1885.9142,-30.9166"/>
<polygon fill="#c0c0c0" stroke="#c0c0c0" stroke-width="2" points="1887.2844,-34.1416 1895.4474,-27.3876 1884.8543,-27.5769 1887.2844,-34.1416"/>
</g>
<!-- 22&#45;&gt;47 -->
<g id="edge97" class="edge">
<title>22&#45;&gt;47</title>
<path fill="none" stroke="#c0c0c0" stroke-width="2" d="M1631.7521,-146.1752C1634.7032,-145.4169 1637.6303,-144.6875 1640.5,-144 1716.4124,-125.8133 1804.9733,-109.6703 1862.3027,-99.8761"/>
<polygon fill="#c0c0c0" stroke="#c0c0c0" stroke-width="2" points="1863.009,-103.3063 1872.2819,-98.1815 1861.8371,-96.4051 1863.009,-103.3063"/>
</g>
<!-- 23&#45;&gt;0 -->
<g id="edge7" class="edge">
<title>23&#45;&gt;0</title>
<path fill="none" stroke="#c0c0c0" stroke-width="2" d="M1741.2836,-143.8208C1779.9935,-116.9441 1847.4478,-70.1097 1888.2379,-41.7886"/>
<polygon fill="#c0c0c0" stroke="#c0c0c0" stroke-width="2" points="1890.2993,-44.6183 1896.5174,-36.0401 1886.307,-38.8683 1890.2993,-44.6183"/>
</g>
<!-- 23&#45;&gt;47 -->
<g id="edge98" class="edge">
<title>23&#45;&gt;47</title>
<path fill="none" stroke="#c0c0c0" stroke-width="2" d="M1769.7152,-143.9453C1798.6478,-133.7298 1833.5626,-121.4021 1862.7079,-111.1114"/>
<polygon fill="#c0c0c0" stroke="#c0c0c0" stroke-width="2" points="1864.0896,-114.3354 1872.3538,-107.7056 1861.759,-107.7348 1864.0896,-114.3354"/>
</g>
<!-- 24&#45;&gt;0 -->
<g id="edge8" class="edge">
<title>24&#45;&gt;0</title>
<path fill="none" stroke="#c0c0c0" stroke-width="2" d="M1850.9633,-143.8345C1850.3993,-124.2634 1851.9108,-94.5911 1863.5,-72 1869.2438,-60.8035 1878.3147,-50.7669 1887.6374,-42.4723"/>
<polygon fill="#c0c0c0" stroke="#c0c0c0" stroke-width="2" points="1890.0364,-45.0286 1895.4601,-35.9272 1885.5445,-39.6598 1890.0364,-45.0286"/>
</g>
<!-- 24&#45;&gt;47 -->
<g id="edge99" class="edge">
<title>24&#45;&gt;47</title>
<path fill="none" stroke="#c0c0c0" stroke-width="2" d="M1871.9989,-143.7476C1880.2161,-135.0021 1889.8619,-124.7363 1898.5093,-115.5329"/>
<polygon fill="#c0c0c0" stroke="#c0c0c0" stroke-width="2" points="1901.1883,-117.7931 1905.4851,-108.1087 1896.0869,-112.9998 1901.1883,-117.7931"/>
</g>
<!-- 25&#45;&gt;0 -->
<g id="edge9" class="edge">
<title>25&#45;&gt;0</title>
<path fill="none" stroke="#c0c0c0" stroke-width="2" d="M1994.7645,-143.82C1995.0817,-124.2385 1993.2248,-94.559 1981.5,-72 1975.7467,-60.9305 1966.7648,-50.9796 1957.5291,-42.7257"/>
<polygon fill="#c0c0c0" stroke="#c0c0c0" stroke-width="2" points="1959.6823,-39.9633 1949.7767,-36.2042 1955.1761,-45.32 1959.6823,-39.9633"/>
</g>
<!-- 25&#45;&gt;47 -->
<g id="edge100" class="edge">
<title>25&#45;&gt;47</title>
<path fill="none" stroke="#c0c0c0" stroke-width="2" d="M1973.7225,-143.7476C1965.3879,-135.0021 1955.6044,-124.7363 1946.8334,-115.5329"/>
<polygon fill="#c0c0c0" stroke="#c0c0c0" stroke-width="2" points="1949.1906,-112.9331 1939.7579,-108.1087 1944.1232,-117.7624 1949.1906,-112.9331"/>
</g>
<!-- 26&#45;&gt;0 -->
<g id="edge10" class="edge">
<title>26&#45;&gt;0</title>
<path fill="none" stroke="#c0c0c0" stroke-width="2" d="M2105.7229,-143.8871C2078.5859,-125.1155 2037.383,-96.6486 2001.5,-72 1987.2339,-62.2004 1971.4959,-51.4338 1957.8465,-42.1102"/>
<polygon fill="#c0c0c0" stroke="#c0c0c0" stroke-width="2" points="1959.4471,-38.965 1949.215,-36.2162 1955.4997,-44.7458 1959.4471,-38.965"/>
</g>
<!-- 26&#45;&gt;47 -->
<g id="edge101" class="edge">
<title>26&#45;&gt;47</title>
<path fill="none" stroke="#c0c0c0" stroke-width="2" d="M2076.733,-143.9453C2047.4155,-133.6911 2012.0133,-121.3086 1982.5247,-110.9946"/>
<polygon fill="#c0c0c0" stroke="#c0c0c0" stroke-width="2" points="1983.3632,-107.58 1972.7683,-107.5821 1981.052,-114.1875 1983.3632,-107.58"/>
</g>
<!-- 27&#45;&gt;0 -->
<g id="edge11" class="edge">
<title>27&#45;&gt;0</title>
<path fill="none" stroke="#c0c0c0" stroke-width="2" d="M2227.765,-143.9755C2155.5261,-114.1643 2023.2258,-59.5671 1959.1739,-33.1344"/>
<polygon fill="#c0c0c0" stroke="#c0c0c0" stroke-width="2" points="1960.4456,-29.873 1949.8666,-29.2935 1957.7752,-36.3436 1960.4456,-29.873"/>
</g>
<!-- 27&#45;&gt;47 -->
<g id="edge102" class="edge">
<title>27&#45;&gt;47</title>
<path fill="none" stroke="#c0c0c0" stroke-width="2" d="M2215.249,-146.1706C2212.2976,-145.4135 2209.3701,-144.6856 2206.5,-144 2129.826,-125.6835 2040.3283,-109.5152 1982.6065,-99.7542"/>
<polygon fill="#c0c0c0" stroke="#c0c0c0" stroke-width="2" points="1983.0045,-96.272 1972.5627,-98.0662 1981.8443,-103.1752 1983.0045,-96.272"/>
</g>
<!-- 28&#45;&gt;0 -->
<g id="edge12" class="edge">
<title>28&#45;&gt;0</title>
<path fill="none" stroke="#c0c0c0" stroke-width="2" d="M2357.4964,-145.8232C2294.9507,-127.0244 2195.5893,-97.2734 2109.5,-72 2057.6351,-56.7739 1997.5743,-39.4923 1959.8098,-28.6688"/>
<polygon fill="#c0c0c0" stroke="#c0c0c0" stroke-width="2" points="1960.3521,-25.1834 1949.7749,-25.7943 1958.4244,-31.9128 1960.3521,-25.1834"/>
</g>
<!-- 28&#45;&gt;47 -->
<g id="edge103" class="edge">
<title>28&#45;&gt;47</title>
<path fill="none" stroke="#c0c0c0" stroke-width="2" d="M2357.2983,-145.9494C2354.3337,-145.2515 2351.3899,-144.5966 2348.5,-144 2219.5395,-117.3763 2065.7351,-101.7845 1982.7632,-94.6757"/>
<polygon fill="#c0c0c0" stroke="#c0c0c0" stroke-width="2" points="1983.0169,-91.1848 1972.7577,-93.8303 1982.4275,-98.1599 1983.0169,-91.1848"/>
</g>
<!-- 29&#45;&gt;0 -->
<g id="edge13" class="edge">
<title>29&#45;&gt;0</title>
<path fill="none" stroke="#c0c0c0" stroke-width="2" d="M2499.2112,-146.3217C2496.2699,-145.5242 2493.3549,-144.7464 2490.5,-144 2291.7201,-92.0289 2050.2259,-43.0979 1959.3955,-25.1875"/>
<polygon fill="#c0c0c0" stroke="#c0c0c0" stroke-width="2" points="1960.0637,-21.752 1949.5763,-23.2566 1958.713,-28.6204 1960.0637,-21.752"/>
</g>
<!-- 29&#45;&gt;47 -->
<g id="edge104" class="edge">
<title>29&#45;&gt;47</title>
<path fill="none" stroke="#c0c0c0" stroke-width="2" d="M2499.3206,-145.8368C2496.35,-145.169 2493.3989,-144.5513 2490.5,-144 2307.564,-109.209 2087.0074,-96.3951 1982.7306,-92.0422"/>
<polygon fill="#c0c0c0" stroke="#c0c0c0" stroke-width="2" points="1982.8398,-88.5438 1972.7059,-91.635 1982.5556,-95.5381 1982.8398,-88.5438"/>
</g>
<!-- 30&#45;&gt;0 -->
<g id="edge14" class="edge">
<title>30&#45;&gt;0</title>
<path fill="none" stroke="#c0c0c0" stroke-width="2" d="M2641.237,-146.22C2638.2888,-145.4497 2635.3653,-144.7055 2632.5,-144 2477.4475,-105.8218 2437.7242,-99.9179 2280.5,-72 2163.838,-51.2846 2024.8721,-31.7973 1959.705,-22.9617"/>
<polygon fill="#c0c0c0" stroke="#c0c0c0" stroke-width="2" points="1959.9027,-19.4567 1949.5242,-21.5867 1958.9657,-26.3937 1959.9027,-19.4567"/>
</g>
<!-- 30&#45;&gt;47 -->
<g id="edge105" class="edge">
<title>30&#45;&gt;47</title>
<path fill="none" stroke="#c0c0c0" stroke-width="2" d="M2641.3332,-145.7687C2638.3593,-145.1192 2635.404,-144.5239 2632.5,-144 2508.3494,-121.6008 2130.8563,-100.5934 1982.9018,-92.9964"/>
<polygon fill="#c0c0c0" stroke="#c0c0c0" stroke-width="2" points="1982.8179,-89.4877 1972.6524,-92.4728 1982.4607,-96.4785 1982.8179,-89.4877"/>
</g>
<!-- 31&#45;&gt;0 -->
<g id="edge15" class="edge">
<title>31&#45;&gt;0</title>
<path fill="none" stroke="#c0c0c0" stroke-width="2" d="M2783.2504,-146.1649C2780.2986,-145.4094 2777.3707,-144.6833 2774.5,-144 2606.429,-103.9922 2563.3183,-97.8768 2392.5,-72 2232.0121,-47.6881 2039.213,-28.7313 1959.6333,-21.3503"/>
<polygon fill="#c0c0c0" stroke="#c0c0c0" stroke-width="2" points="1959.8913,-17.8594 1949.6122,-20.4267 1959.2488,-24.8298 1959.8913,-17.8594"/>
</g>
<!-- 31&#45;&gt;47 -->
<g id="edge106" class="edge">
<title>31&#45;&gt;47</title>
<path fill="none" stroke="#c0c0c0" stroke-width="2" d="M2783.3413,-145.7232C2780.3652,-145.0858 2777.4072,-144.5056 2774.5,-144 2621.908,-117.4621 2150.5994,-98.2637 1982.6812,-92.1087"/>
<polygon fill="#c0c0c0" stroke="#c0c0c0" stroke-width="2" points="1982.6595,-88.6057 1972.5387,-91.7393 1982.4047,-95.601 1982.6595,-88.6057"/>
</g>
<!-- 32&#45;&gt;0 -->
<g id="edge16" class="edge">
<title>32&#45;&gt;0</title>
<path fill="none" stroke="#c0c0c0" stroke-width="2" d="M101.2535,-146.5364C104.0353,-145.6547 106.7975,-144.8032 109.5,-144 236.799,-106.1673 267.9863,-90.4525 399.5,-72 699.3754,-29.925 1680.6443,-19.9194 1885.005,-18.2727"/>
<polygon fill="#c0c0c0" stroke="#c0c0c0" stroke-width="2" points="1885.248,-21.771 1895.2201,-18.1922 1885.1928,-14.7712 1885.248,-21.771"/>
</g>
<!-- 32&#45;&gt;47 -->
<g id="edge77" class="edge">
<title>32&#45;&gt;47</title>
<path fill="none" stroke="#c0c0c0" stroke-width="2" d="M98.4741,-146.495C102.1706,-145.5196 105.8741,-144.6676 109.5,-144 284.72,-111.7364 1567.0691,-94.3147 1862.094,-90.7084"/>
<polygon fill="#c0c0c0" stroke="#c0c0c0" stroke-width="2" points="1862.2124,-94.2073 1872.169,-90.5859 1862.1272,-87.2078 1862.2124,-94.2073"/>
</g>
<!-- 33&#45;&gt;0 -->
<g id="edge17" class="edge">
<title>33&#45;&gt;0</title>
<path fill="none" stroke="#c0c0c0" stroke-width="2" d="M219.1906,-146.4745C222.3225,-145.575 225.4436,-144.7398 228.5,-144 450.5627,-90.2539 510.0137,-93.2243 737.5,-72 1188.1036,-29.9591 1738.2803,-20.3041 1885.0543,-18.4127"/>
<polygon fill="#c0c0c0" stroke="#c0c0c0" stroke-width="2" points="1885.352,-21.9094 1895.3075,-18.2849 1885.2647,-14.9099 1885.352,-21.9094"/>
</g>
<!-- 33&#45;&gt;47 -->
<g id="edge78" class="edge">
<title>33&#45;&gt;47</title>
<path fill="none" stroke="#c0c0c0" stroke-width="2" d="M217.8018,-146.4176C221.3896,-145.476 224.9814,-144.6517 228.5,-144 391.492,-113.8118 1580.077,-94.9291 1862.4398,-90.8391"/>
<polygon fill="#c0c0c0" stroke="#c0c0c0" stroke-width="2" points="1862.5407,-94.3381 1872.4892,-90.6943 1862.4397,-87.3388 1862.5407,-94.3381"/>
</g>
<!-- 34&#45;&gt;0 -->
<g id="edge18" class="edge">
<title>34&#45;&gt;0</title>
<path fill="none" stroke="#c0c0c0" stroke-width="2" d="M337.5003,-146.4775C340.8597,-145.551 344.2146,-144.7114 347.5,-144 517.6281,-107.1641 564.2477,-124.8553 737.5,-108 894.0215,-92.7724 932.7851,-85.0889 1089.5,-72 1396.2023,-46.3841 1767.3024,-26.1065 1884.8865,-19.9387"/>
<polygon fill="#c0c0c0" stroke="#c0c0c0" stroke-width="2" points="1885.3443,-23.4197 1895.148,-19.4026 1884.979,-16.4292 1885.3443,-23.4197"/>
</g>
<!-- 34&#45;&gt;47 -->
<g id="edge79" class="edge">
<title>34&#45;&gt;47</title>
<path fill="none" stroke="#c0c0c0" stroke-width="2" d="M336.8036,-146.4273C340.3909,-145.4834 343.9822,-144.6559 347.5,-144 423.1397,-129.8964 1582.2856,-98.8753 1862.0682,-91.565"/>
<polygon fill="#c0c0c0" stroke="#c0c0c0" stroke-width="2" points="1862.5154,-95.0546 1872.4207,-91.2949 1862.3328,-88.057 1862.5154,-95.0546"/>
</g>
<!-- 35&#45;&gt;0 -->
<g id="edge19" class="edge">
<title>35&#45;&gt;0</title>
<path fill="none" stroke="#c0c0c0" stroke-width="2" d="M456.1474,-146.4335C459.622,-145.5033 463.0965,-144.676 466.5,-144 738.537,-89.9691 814.1484,-141.2409 1089.5,-108 1176.996,-97.4373 1197.153,-83.7305 1284.5,-72 1511.7112,-41.486 1786.9001,-25.0905 1885.3038,-19.8692"/>
<polygon fill="#c0c0c0" stroke="#c0c0c0" stroke-width="2" points="1885.5424,-23.3616 1895.3455,-19.3428 1885.1759,-16.3712 1885.5424,-23.3616"/>
</g>
<!-- 35&#45;&gt;47 -->
<g id="edge80" class="edge">
<title>35&#45;&gt;47</title>
<path fill="none" stroke="#c0c0c0" stroke-width="2" d="M455.8057,-146.4385C459.3925,-145.492 462.9831,-144.6608 466.5,-144 535.9955,-130.9414 1595.2134,-99.4884 1861.9089,-91.7447"/>
<polygon fill="#c0c0c0" stroke="#c0c0c0" stroke-width="2" points="1862.275,-95.2356 1872.1693,-91.4471 1862.072,-88.2386 1862.275,-95.2356"/>
</g>
<!-- 36&#45;&gt;0 -->
<g id="edge20" class="edge">
<title>36&#45;&gt;0</title>
<path fill="none" stroke="#c0c0c0" stroke-width="2" d="M574.8167,-146.496C578.401,-145.536 581.988,-144.6861 585.5,-144 890.8067,-84.3545 978.2374,-162.5253 1284.5,-108 1337.6456,-98.5383 1347.6163,-82.8303 1400.5,-72 1579.7904,-35.2824 1799.1056,-22.9392 1885.248,-19.3258"/>
<polygon fill="#c0c0c0" stroke="#c0c0c0" stroke-width="2" points="1885.4689,-22.8198 1895.3191,-18.9181 1885.1857,-15.8256 1885.4689,-22.8198"/>
</g>
<!-- 36&#45;&gt;47 -->
<g id="edge81" class="edge">
<title>36&#45;&gt;47</title>
<path fill="none" stroke="#c0c0c0" stroke-width="2" d="M574.8082,-146.4517C578.3944,-145.5021 581.9842,-144.6666 585.5,-144 617.263,-137.9773 1605.235,-101.5796 1862.0046,-92.2022"/>
<polygon fill="#c0c0c0" stroke="#c0c0c0" stroke-width="2" points="1862.3906,-95.6906 1872.2562,-91.828 1862.1351,-88.6952 1862.3906,-95.6906"/>
</g>
<!-- 37&#45;&gt;0 -->
<g id="edge21" class="edge">
<title>37&#45;&gt;0</title>
<path fill="none" stroke="#c0c0c0" stroke-width="2" d="M693.8169,-146.4969C697.4011,-145.5367 700.988,-144.6865 704.5,-144 1008.4933,-84.5762 1099.9661,-182.9832 1400.5,-108 1437.1541,-98.8548 1441.1835,-82.4055 1477.5,-72 1554.0394,-50.0697 1792.5104,-28.6987 1885.1611,-21.0029"/>
<polygon fill="#c0c0c0" stroke="#c0c0c0" stroke-width="2" points="1885.5273,-24.4847 1895.2059,-20.1748 1884.9521,-17.5083 1885.5273,-24.4847"/>
</g>
<!-- 37&#45;&gt;47 -->
<g id="edge82" class="edge">
<title>37&#45;&gt;47</title>
<path fill="none" stroke="#c0c0c0" stroke-width="2" d="M693.8112,-146.4674C697.3967,-145.5141 700.9855,-144.6736 704.5,-144 733.2235,-138.4951 1620.6701,-102.227 1862.2796,-92.4336"/>
<polygon fill="#c0c0c0" stroke="#c0c0c0" stroke-width="2" points="1862.4364,-95.9302 1872.2865,-92.0281 1862.153,-88.9359 1862.4364,-95.9302"/>
</g>
<!-- 38&#45;&gt;0 -->
<g id="edge22" class="edge">
<title>38&#45;&gt;0</title>
<path fill="none" stroke="#c0c0c0" stroke-width="2" d="M813.1453,-146.4229C816.6204,-145.4952 820.0956,-144.6713 823.5,-144 1109.1065,-87.6792 1199.8499,-195.4846 1477.5,-108 1506.4372,-98.8822 1506.9694,-82.3198 1535.5,-72 1599.5829,-48.8207 1801.4359,-28.7647 1885.348,-21.2058"/>
<polygon fill="#c0c0c0" stroke="#c0c0c0" stroke-width="2" points="1885.7979,-24.6797 1895.4475,-20.3053 1885.1761,-17.7074 1885.7979,-24.6797"/>
</g>
<!-- 38&#45;&gt;47 -->
<g id="edge83" class="edge">
<title>38&#45;&gt;47</title>
<path fill="none" stroke="#c0c0c0" stroke-width="2" d="M812.8149,-146.4866C816.3996,-145.5288 819.9871,-144.682 823.5,-144 836.3561,-141.5042 1634.2368,-103.6306 1862.2531,-92.8458"/>
<polygon fill="#c0c0c0" stroke="#c0c0c0" stroke-width="2" points="1862.5342,-96.3365 1872.3577,-92.368 1862.2035,-89.3443 1862.5342,-96.3365"/>
</g>
<!-- 39&#45;&gt;0 -->
<g id="edge23" class="edge">
<title>39&#45;&gt;0</title>
<path fill="none" stroke="#c0c0c0" stroke-width="2" d="M2925.9249,-146.6177C2922.7504,-145.6826 2919.5903,-144.8004 2916.5,-144 2551.7038,-49.5124 2092.5079,-24.7122 1959.9075,-19.3192"/>
<polygon fill="#c0c0c0" stroke="#c0c0c0" stroke-width="2" points="1959.9917,-15.8199 1949.8614,-18.9227 1959.7156,-22.8144 1959.9917,-15.8199"/>
</g>
<!-- 39&#45;&gt;47 -->
<g id="edge84" class="edge">
<title>39&#45;&gt;47</title>
<path fill="none" stroke="#c0c0c0" stroke-width="2" d="M2927.0206,-146.4228C2923.4889,-145.4951 2919.958,-144.6713 2916.5,-144 2736.1505,-108.9874 2169.7818,-94.8855 1982.9542,-91.1107"/>
<polygon fill="#c0c0c0" stroke="#c0c0c0" stroke-width="2" points="1982.838,-87.6078 1972.7702,-90.9076 1982.6983,-94.6064 1982.838,-87.6078"/>
</g>
<!-- 40&#45;&gt;0 -->
<g id="edge24" class="edge">
<title>40&#45;&gt;0</title>
<path fill="none" stroke="#c0c0c0" stroke-width="2" d="M3045.1128,-146.4793C3042.211,-145.6018 3039.3253,-144.7679 3036.5,-144 2878.2018,-100.9777 2837.0696,-93.9172 2674.5,-72 2401.7691,-35.2312 2069.7875,-22.4342 1959.8377,-19.0346"/>
<polygon fill="#c0c0c0" stroke="#c0c0c0" stroke-width="2" points="1959.7038,-15.529 1949.6028,-18.7257 1959.4926,-22.5259 1959.7038,-15.529"/>
</g>
<!-- 40&#45;&gt;47 -->
<g id="edge85" class="edge">
<title>40&#45;&gt;47</title>
<path fill="none" stroke="#c0c0c0" stroke-width="2" d="M3047.1856,-146.4839C3043.6008,-145.5268 3040.0131,-144.6808 3036.5,-144 2831.9053,-104.3506 2183.7491,-93.2001 1982.6218,-90.6551"/>
<polygon fill="#c0c0c0" stroke="#c0c0c0" stroke-width="2" points="1982.5835,-87.1545 1972.5409,-90.53 1982.4967,-94.1539 1982.5835,-87.1545"/>
</g>
<!-- 41&#45;&gt;0 -->
<g id="edge25" class="edge">
<title>41&#45;&gt;0</title>
<path fill="none" stroke="#c0c0c0" stroke-width="2" d="M3164.1108,-146.4866C3161.2095,-145.6072 3158.3245,-144.7709 3155.5,-144 2998.9296,-101.2676 2958.4265,-93.0478 2797.5,-72 2475.2173,-29.8483 2081.7293,-20.4445 1960.1067,-18.4849"/>
<polygon fill="#c0c0c0" stroke="#c0c0c0" stroke-width="2" points="1959.8996,-14.9814 1949.8469,-18.3271 1959.7919,-21.9806 1959.8996,-14.9814"/>
</g>
<!-- 41&#45;&gt;47 -->
<g id="edge86" class="edge">
<title>41&#45;&gt;47</title>
<path fill="none" stroke="#c0c0c0" stroke-width="2" d="M3166.1892,-146.4653C3162.6036,-145.5125 3159.0147,-144.6726 3155.5,-144 2926.8308,-100.2386 2197.8734,-91.8613 1982.7901,-90.3287"/>
<polygon fill="#c0c0c0" stroke="#c0c0c0" stroke-width="2" points="1982.6646,-86.8279 1972.6406,-90.2588 1982.6163,-93.8277 1982.6646,-86.8279"/>
</g>
<!-- 42&#45;&gt;0 -->
<g id="edge26" class="edge">
<title>42&#45;&gt;0</title>
<path fill="none" stroke="#c0c0c0" stroke-width="2" d="M3283.1093,-146.4921C3280.2084,-145.6113 3277.3239,-144.7732 3274.5,-144 3119.2251,-101.4849 3079.1914,-92.4078 2919.5,-72 2728.305,-47.5662 2116.9009,-24.8326 1959.6558,-19.2845"/>
<polygon fill="#c0c0c0" stroke="#c0c0c0" stroke-width="2" points="1959.6634,-15.7827 1949.5467,-18.9294 1959.4176,-22.7784 1959.6634,-15.7827"/>
</g>
<!-- 42&#45;&gt;47 -->
<g id="edge87" class="edge">
<title>42&#45;&gt;47</title>
<path fill="none" stroke="#c0c0c0" stroke-width="2" d="M3285.1922,-146.4499C3281.6058,-145.5007 3278.0159,-144.6659 3274.5,-144 3146.7228,-119.8015 2228.3652,-97.0615 1982.7674,-91.3634"/>
<polygon fill="#c0c0c0" stroke="#c0c0c0" stroke-width="2" points="1982.6835,-87.8606 1972.6052,-91.1284 1982.5216,-94.8587 1982.6835,-87.8606"/>
</g>
<!-- 43&#45;&gt;0 -->
<g id="edge27" class="edge">
<title>43&#45;&gt;0</title>
<path fill="none" stroke="#c0c0c0" stroke-width="2" d="M3402.1083,-146.4958C3399.2076,-145.6141 3396.3234,-144.7747 3393.5,-144 3239.0886,-101.6297 3199.3751,-91.9206 3040.5,-72 2824.3636,-44.8996 2129.354,-23.8509 1959.9803,-19.0387"/>
<polygon fill="#c0c0c0" stroke="#c0c0c0" stroke-width="2" points="1959.913,-15.5355 1949.8181,-18.7516 1959.7152,-22.5327 1959.913,-15.5355"/>
</g>
<!-- 43&#45;&gt;47 -->
<g id="edge88" class="edge">
<title>43&#45;&gt;47</title>
<path fill="none" stroke="#c0c0c0" stroke-width="2" d="M3404.1946,-146.4369C3400.6077,-145.4908 3397.017,-144.6602 3393.5,-144 3253.5306,-117.7264 2242.014,-96.2655 1982.8609,-91.1565"/>
<polygon fill="#c0c0c0" stroke="#c0c0c0" stroke-width="2" points="1982.589,-87.6506 1972.5222,-90.9535 1982.4515,-94.6492 1982.589,-87.6506"/>
</g>
<!-- 44&#45;&gt;0 -->
<g id="edge28" class="edge">
<title>44&#45;&gt;0</title>
<path fill="none" stroke="#c0c0c0" stroke-width="2" d="M3521.1078,-146.4977C3518.2072,-145.6155 3515.3232,-144.7755 3512.5,-144 3358.5203,-101.7021 3318.9836,-91.5404 3160.5,-72 2919.2266,-42.252 2139.1195,-22.9428 1959.5838,-18.8254"/>
<polygon fill="#c0c0c0" stroke="#c0c0c0" stroke-width="2" points="1959.6556,-15.3263 1949.5785,-18.5975 1959.4961,-22.3245 1959.6556,-15.3263"/>
</g>
<!-- 44&#45;&gt;47 -->
<g id="edge89" class="edge">
<title>44&#45;&gt;47</title>
<path fill="none" stroke="#c0c0c0" stroke-width="2" d="M3523.1966,-146.426C3519.6093,-145.4824 3516.0179,-144.6554 3512.5,-144 3360.2795,-115.6429 2254.7613,-95.5313 1982.8108,-90.9777"/>
<polygon fill="#c0c0c0" stroke="#c0c0c0" stroke-width="2" points="1982.7944,-87.4771 1972.7374,-90.8098 1982.6777,-94.4761 1982.7944,-87.4771"/>
</g>
<!-- 45&#45;&gt;0 -->
<g id="edge29" class="edge">
<title>45&#45;&gt;0</title>
<path fill="none" stroke="#c0c0c0" stroke-width="2" d="M3640.1073,-146.4996C3637.2068,-145.6169 3634.323,-144.7763 3631.5,-144 3477.9519,-101.7745 3438.5833,-91.2272 3280.5,-72 3014.2724,-39.6195 2150.0276,-22.1655 1959.7716,-18.6619"/>
<polygon fill="#c0c0c0" stroke="#c0c0c0" stroke-width="2" points="1959.7745,-15.1615 1949.7122,-18.4781 1959.6466,-22.1603 1959.7745,-15.1615"/>
</g>
<!-- 45&#45;&gt;47 -->
<g id="edge90" class="edge">
<title>45&#45;&gt;47</title>
<path fill="none" stroke="#c0c0c0" stroke-width="2" d="M3642.1984,-146.4165C3638.6106,-145.4752 3635.0187,-144.6512 3631.5,-144 3466.9719,-113.5511 2266.6401,-94.8501 1982.6245,-90.822"/>
<polygon fill="#c0c0c0" stroke="#c0c0c0" stroke-width="2" points="1982.5669,-87.3209 1972.5185,-90.6794 1982.468,-94.3202 1982.5669,-87.3209"/>
</g>
<!-- 46&#45;&gt;0 -->
<g id="edge30" class="edge">
<title>46&#45;&gt;0</title>
<path fill="none" stroke="#c0c0c0" stroke-width="2" d="M3758.7846,-146.4036C3755.9929,-145.5561 3753.2182,-144.7483 3750.5,-144 3597.3836,-101.8469 3558.1765,-90.9648 3400.5,-72 3109.1838,-36.9614 2160.0345,-21.446 1959.8003,-18.521"/>
<polygon fill="#c0c0c0" stroke="#c0c0c0" stroke-width="2" points="1959.5671,-15.0174 1949.5175,-18.3723 1959.4658,-22.0167 1959.5671,-15.0174"/>
</g>
<!-- 46&#45;&gt;47 -->
<g id="edge91" class="edge">
<title>46&#45;&gt;47</title>
<path fill="none" stroke="#c0c0c0" stroke-width="2" d="M3761.5261,-146.494C3757.8296,-145.5188 3754.126,-144.6672 3750.5,-144 3573.7312,-111.4736 2279.4591,-94.2391 1982.9194,-90.6927"/>
<polygon fill="#c0c0c0" stroke="#c0c0c0" stroke-width="2" points="1982.8359,-87.1915 1972.7949,-90.5723 1982.7526,-94.191 1982.8359,-87.1915"/>
</g>
<!-- 47&#45;&gt;0 -->
<g id="edge31" class="edge">
<title>47&#45;&gt;0</title>
<path fill="none" stroke="#c0c0c0" stroke-width="2" d="M1922.5,-71.8314C1922.5,-64.131 1922.5,-54.9743 1922.5,-46.4166"/>
<polygon fill="#c0c0c0" stroke="#c0c0c0" stroke-width="2" points="1926.0001,-46.4132 1922.5,-36.4133 1919.0001,-46.4133 1926.0001,-46.4132"/>
</g>
</g>
</svg>
